<svg width="64" height="64" viewBox="0 0 64 64" fill="none" xmlns="http://www.w3.org/2000/svg">
<rect width="64" height="64" rx="15" fill="#27AAE1"/>
<path d="M19.7825 15.7304C19.8432 15.5211 19.6612 15.3044 19.3806 15.267C18.827 15.1848 18.2733 15.125 17.7197 15.0876C17.4391 15.0727 17.1509 15.2296 17.0751 15.4389C16.931 15.8425 16.7945 16.2536 16.6504 16.6572C16.5746 16.8665 16.7566 17.0459 17.0523 17.0683C17.6287 17.1131 18.2127 17.1804 18.789 17.2701C19.0848 17.3149 19.373 17.1879 19.4337 16.9711C19.5474 16.5526 19.6612 16.1415 19.7825 15.7304Z" fill="#73C8EC"/>
<path d="M22.8394 16.5001C22.8849 16.2834 22.6953 16.0367 22.4147 15.9471C21.8687 15.7826 21.3227 15.6406 20.7766 15.5136C20.496 15.4538 20.223 15.5808 20.1623 15.7901C20.0486 16.2012 19.9348 16.6197 19.8211 17.0383C19.7604 17.2476 19.95 17.4718 20.2458 17.5316C20.8221 17.6586 21.3909 17.8081 21.9673 17.98C22.2555 18.0697 22.5285 17.9725 22.574 17.7558C22.665 17.3447 22.756 16.9187 22.8394 16.5001Z" fill="#73C8EC"/>
<path d="M25.8573 17.7263C25.8877 17.5096 25.6905 17.2181 25.4175 17.0985C24.879 16.8519 24.3406 16.6276 23.8021 16.4184C23.5291 16.3137 23.2636 16.4109 23.2257 16.6276C23.1423 17.0462 23.0589 17.4722 22.9755 17.8908C22.9299 18.1075 23.1347 18.3616 23.4229 18.4663C23.9917 18.6755 24.5605 18.9072 25.1217 19.1539C25.4099 19.281 25.6677 19.2137 25.6905 18.9969C25.7436 18.5784 25.8042 18.1524 25.8573 17.7263Z" fill="#73C8EC"/>
<path d="M28.8222 19.4148C28.8374 19.198 28.6326 18.8692 28.3672 18.7047C27.8439 18.3759 27.3131 18.0619 26.7822 17.7779C26.5092 17.6284 26.2665 17.6957 26.2438 17.9199C26.1907 18.346 26.1376 18.772 26.0845 19.198C26.0542 19.4148 26.2665 19.7063 26.5547 19.8557C27.1159 20.1472 27.6695 20.4537 28.2155 20.79C28.4961 20.9619 28.7312 20.9246 28.7464 20.7078C28.7615 20.2668 28.7919 19.8408 28.8222 19.4148Z" fill="#73C8EC"/>
<path d="M19.1292 18.0325C19.1899 17.8233 19.0003 17.6065 18.7045 17.5617C18.1206 17.472 17.5442 17.4047 16.9603 17.3599C16.6645 17.3374 16.3611 17.4944 16.2929 17.7037C16.1488 18.1073 16.0123 18.5183 15.8682 18.9219C15.7924 19.1312 15.9895 19.3106 16.2929 19.3405C16.8996 19.3928 17.5063 19.4676 18.113 19.5647C18.4239 19.617 18.7197 19.49 18.7803 19.2732C18.8941 18.8622 19.0079 18.4511 19.1292 18.0325Z" fill="#73C8EC"/>
<path d="M18.4791 20.3422C18.5398 20.1329 18.335 19.9087 18.0241 19.8638C17.4174 19.7666 16.8031 19.6919 16.1964 19.6321C15.8854 19.6022 15.5745 19.7592 15.4987 19.9684C15.3546 20.3721 15.2181 20.7831 15.074 21.1867C14.9981 21.396 15.2029 21.5829 15.529 21.6128C16.166 21.6726 16.7955 21.7548 17.4326 21.8669C17.7587 21.9192 18.0696 21.7996 18.1303 21.5829C18.244 21.1718 18.3578 20.7532 18.4791 20.3422Z" fill="#73C8EC"/>
<path d="M21.8686 21.1942C21.9141 20.9775 21.7018 20.7234 21.3908 20.6337C20.7841 20.4543 20.1774 20.2973 19.5707 20.1628C19.2597 20.0955 18.964 20.2151 18.9033 20.4319C18.7895 20.8504 18.6758 21.2615 18.562 21.68C18.5014 21.8893 18.7213 22.121 19.0398 22.1883C19.6769 22.3303 20.3063 22.4947 20.9358 22.6816C21.2619 22.7787 21.5577 22.6816 21.6032 22.4648C21.6942 22.0388 21.7776 21.6128 21.8686 21.1942Z" fill="#73C8EC"/>
<path d="M25.221 22.4797C25.2514 22.263 25.0314 21.9715 24.7205 21.8444C24.1214 21.5903 23.5223 21.3511 22.9232 21.1344C22.6198 21.0223 22.3317 21.1194 22.2861 21.3362C22.2027 21.7547 22.1193 22.1807 22.0359 22.5993C21.9904 22.816 22.2179 23.0776 22.5364 23.1897C23.1659 23.4065 23.7953 23.6457 24.4172 23.9073C24.7357 24.0418 25.0163 23.9745 25.0466 23.7578C25.1073 23.3318 25.1604 22.9057 25.221 22.4797Z" fill="#73C8EC"/>
<path d="M17.8257 22.6515C17.8864 22.4422 17.6665 22.218 17.348 22.1582C16.7109 22.0536 16.0739 21.9639 15.4293 21.9041C15.1031 21.8742 14.7846 22.0237 14.7088 22.233C14.5647 22.6366 14.4282 23.0477 14.2841 23.4513C14.2083 23.6605 14.4282 23.8474 14.7619 23.8848C15.4217 23.952 16.089 24.0492 16.7488 24.1613C17.0901 24.2211 17.4086 24.1015 17.4693 23.8922C17.5906 23.4737 17.7044 23.0626 17.8257 22.6515Z" fill="#73C8EC"/>
<path d="M17.1665 24.9537C17.2272 24.7444 16.9997 24.5128 16.6584 24.453C15.991 24.3409 15.3237 24.2437 14.6563 24.1689C14.315 24.1316 13.9814 24.2811 13.9131 24.4903C13.769 24.8939 13.6325 25.305 13.4884 25.7086C13.4126 25.9179 13.6401 26.1122 13.9889 26.1496C14.6791 26.2318 15.3692 26.3289 16.0593 26.456C16.4157 26.5158 16.7494 26.4037 16.8101 26.1869C16.939 25.7833 17.0528 25.3723 17.1665 24.9537Z" fill="#73C8EC"/>
<path d="M37.5453 17.9134C37.515 17.6966 37.2723 17.6294 37.0069 17.7714C36.476 18.0554 35.9451 18.3693 35.4218 18.6982C35.1564 18.8701 34.9516 19.1915 34.9668 19.4082C34.9971 19.8343 35.0199 20.2678 35.0502 20.6938C35.0654 20.9105 35.3005 20.9479 35.5811 20.776C36.1347 20.4397 36.6884 20.1332 37.242 19.8417C37.5302 19.6922 37.7349 19.4008 37.7122 19.184C37.6515 18.7655 37.5984 18.3394 37.5453 17.9134Z" fill="#73C8EC"/>
<path d="M40.5569 16.6278C40.5114 16.4111 40.2536 16.3139 39.9806 16.4185C39.4421 16.6203 38.8961 16.8446 38.3652 17.0987C38.0922 17.2257 37.895 17.5098 37.9253 17.7265C37.986 18.1525 38.0391 18.5786 38.0997 19.0046C38.1301 19.2214 38.3879 19.2886 38.6685 19.1616C39.2297 18.9074 39.7985 18.6832 40.3673 18.4739C40.6555 18.3693 40.8603 18.1152 40.8148 17.8984C40.7238 17.4724 40.6404 17.0538 40.5569 16.6278Z" fill="#73C8EC"/>
<path d="M43.6122 15.798C43.5515 15.5888 43.2785 15.4542 42.9979 15.5215C42.4518 15.6411 41.8982 15.7831 41.3597 15.955C41.0791 16.0372 40.8971 16.2913 40.935 16.5081C41.026 16.9266 41.1095 17.3526 41.2005 17.7712C41.246 17.9879 41.519 18.0851 41.8072 17.9954C42.376 17.8235 42.9524 17.674 43.5287 17.547C43.8245 17.4797 44.0141 17.263 43.9534 17.0537C43.8397 16.6277 43.7259 16.2166 43.6122 15.798Z" fill="#73C8EC"/>
<path d="M37.8407 20.2904C37.8103 20.0736 37.5601 20.0063 37.2719 20.1558C36.7107 20.4473 36.1495 20.7538 35.5958 21.0901C35.3152 21.262 35.0953 21.5834 35.1105 21.8001C35.1408 22.2262 35.1636 22.6597 35.1939 23.0857C35.2091 23.3024 35.4593 23.3398 35.7551 23.1679C36.3315 22.8316 36.9154 22.5177 37.507 22.2262C37.8103 22.0767 38.0303 21.7852 37.9999 21.5684C37.9468 21.1424 37.8937 20.7164 37.8407 20.2904Z" fill="#73C8EC"/>
<path d="M47.4871 17.7039C47.4113 17.4946 47.1155 17.3377 46.8197 17.3601C46.2358 17.4049 45.6518 17.4722 45.0755 17.5619C44.7797 17.6067 44.5901 17.8235 44.6508 18.0327C44.7645 18.4438 44.8859 18.8624 44.9996 19.2735C45.0603 19.4827 45.3561 19.6098 45.667 19.565C46.2737 19.4678 46.8804 19.393 47.4871 19.3407C47.7981 19.3108 47.9877 19.1315 47.9118 18.9222C47.7753 18.5111 47.6312 18.1075 47.4871 17.7039Z" fill="#73C8EC"/>
<path d="M38.1443 22.6665C38.114 22.4498 37.8486 22.3825 37.5452 22.532C36.9537 22.8235 36.3621 23.1374 35.7858 23.4738C35.49 23.6457 35.2625 23.967 35.2776 24.1913C35.308 24.6173 35.3307 25.0508 35.3611 25.4768C35.3762 25.6936 35.6341 25.7309 35.945 25.559C36.5517 25.2227 37.166 24.9088 37.7879 24.6098C38.1064 24.4603 38.3339 24.1688 38.3112 23.9446C38.2505 23.5186 38.1974 23.0926 38.1443 22.6665Z" fill="#73C8EC"/>
<path d="M48.2852 19.9684C48.2094 19.7591 47.8984 19.6096 47.5875 19.632C46.9808 19.6844 46.3665 19.7591 45.7598 19.8637C45.4489 19.9161 45.2441 20.1328 45.3048 20.3496C45.4185 20.7606 45.5399 21.1792 45.6536 21.5903C45.7143 21.7995 46.0252 21.9266 46.3513 21.8743C46.9884 21.7697 47.6178 21.6874 48.2549 21.6202C48.581 21.5903 48.7782 21.4034 48.7099 21.1941C48.5658 20.7831 48.4217 20.372 48.2852 19.9684Z" fill="#73C8EC"/>
<path d="M38.44 25.0434C38.4096 24.8267 38.129 24.7669 37.8181 24.9163C37.1962 25.2153 36.5819 25.5292 35.9677 25.8656C35.6567 26.0375 35.414 26.3588 35.4292 26.5831C35.4595 27.0091 35.4823 27.4426 35.5126 27.8686C35.5278 28.0854 35.8008 28.1227 36.1269 27.9508C36.7639 27.6145 37.4086 27.2931 38.0532 26.9941C38.3869 26.8447 38.6296 26.5457 38.5992 26.329C38.5461 25.8955 38.493 25.4694 38.44 25.0434Z" fill="#73C8EC"/>
<path d="M49.073 22.2332C48.9972 22.0239 48.6787 21.8744 48.3526 21.9043C47.7155 21.9641 47.0785 22.0538 46.4338 22.1584C46.1077 22.2108 45.8953 22.435 45.956 22.6517C46.0698 23.0628 46.1911 23.4814 46.3049 23.8924C46.3656 24.1017 46.6841 24.2213 47.0254 24.1615C47.6928 24.0494 48.3526 23.9522 49.0124 23.885C49.3536 23.8476 49.566 23.6608 49.4902 23.4515C49.3536 23.0479 49.2096 22.6368 49.073 22.2332Z" fill="#73C8EC"/>
<path d="M38.7371 27.4204C38.7067 27.2036 38.4186 27.1438 38.0849 27.2933C37.4327 27.5923 36.7881 27.9136 36.1435 28.25C35.8174 28.4219 35.5671 28.7507 35.5823 28.9675C35.6126 29.3935 35.6353 29.827 35.6657 30.253C35.6808 30.4698 35.9614 30.5072 36.3027 30.3278C36.9701 29.984 37.6374 29.6626 38.32 29.3636C38.6688 29.2067 38.9267 28.9152 38.8963 28.691C38.8508 28.2724 38.7977 27.8464 38.7371 27.4204Z" fill="#73C8EC"/>
<path d="M42.4213 26.0302C42.3758 25.8134 42.0648 25.7237 41.7311 25.8433C41.0714 26.0676 40.404 26.3142 39.7518 26.5833C39.4181 26.7178 39.1678 27.0093 39.1982 27.226C39.2588 27.6521 39.3119 28.0781 39.3726 28.5041C39.4029 28.7209 39.7063 28.7807 40.0551 28.6461C40.7377 28.3771 41.4278 28.1304 42.1179 27.8987C42.4668 27.7791 42.7246 27.5175 42.6791 27.3008C42.5881 26.8748 42.5047 26.4562 42.4213 26.0302Z" fill="#73C8EC"/>
<path d="M46.1439 25.0508C46.0832 24.8416 45.7647 24.722 45.4234 24.7967C44.756 24.9462 44.0887 25.1181 43.4213 25.3124C43.08 25.4096 42.8449 25.6712 42.8904 25.888C42.9814 26.3065 43.0648 26.7325 43.1558 27.1511C43.2013 27.3678 43.5199 27.4575 43.8763 27.3529C44.5664 27.1586 45.2642 26.9792 45.9543 26.8222C46.3107 26.74 46.5458 26.5083 46.4852 26.299C46.3638 25.8805 46.2501 25.4619 46.1439 25.0508Z" fill="#73C8EC"/>
<path d="M17.0583 14.3854C16.9825 14.5946 16.6943 14.7591 16.4137 14.7591C15.8601 14.7665 15.3064 14.8039 14.7528 14.8637C14.4722 14.8936 14.313 14.7591 14.3964 14.5573C14.5632 14.1611 14.7301 13.765 14.8969 13.3689C14.9803 13.1671 15.2761 12.9653 15.5415 12.9279C16.0724 12.8606 16.6109 12.8158 17.1417 12.8008C17.4148 12.7934 17.574 12.9578 17.4982 13.1671C17.3465 13.5707 17.2024 13.9743 17.0583 14.3854Z" fill="white"/>
<path d="M20.433 13.421C20.4936 13.2117 20.3268 13.0025 20.0614 12.9651C19.5381 12.8904 19.0148 12.838 18.4839 12.8156C18.2185 12.8007 17.9379 12.9651 17.862 13.1744C17.7179 13.578 17.5814 13.989 17.4373 14.3927C17.3615 14.6019 17.5359 14.7738 17.8165 14.7963C18.3701 14.8336 18.9162 14.8859 19.4698 14.9682C19.7504 15.013 20.0234 14.8785 20.0841 14.6617C20.1979 14.2506 20.3116 13.8321 20.433 13.421Z" fill="white"/>
<path d="M23.3242 14.1536C23.3697 13.9368 23.1953 13.6902 22.9299 13.608C22.4142 13.451 21.8985 13.309 21.3752 13.1969C21.1098 13.1371 20.8519 13.2716 20.7912 13.4809C20.6775 13.892 20.5637 14.3105 20.45 14.7291C20.3893 14.9384 20.5713 15.1551 20.8519 15.2224C21.3979 15.342 21.944 15.484 22.4824 15.6484C22.7554 15.7306 23.0209 15.6335 23.0664 15.4167C23.1498 14.9982 23.2408 14.5721 23.3242 14.1536Z" fill="white"/>
<path d="M26.1748 15.3568C26.2051 15.14 26.0155 14.856 25.7577 14.729C25.2496 14.4823 24.7414 14.2656 24.2333 14.0638C23.9755 13.9591 23.7252 14.0638 23.6797 14.2805C23.5963 14.6991 23.5128 15.1251 23.4294 15.5436C23.3839 15.7604 23.5735 16.0145 23.8465 16.1192C24.385 16.321 24.9235 16.5452 25.4543 16.7918C25.7273 16.9189 25.97 16.8516 26.0004 16.6274C26.061 16.2088 26.1217 15.7828 26.1748 15.3568Z" fill="white"/>
<path d="M28.9815 17.0235C28.9966 16.8067 28.7994 16.4854 28.5492 16.3135C28.0487 15.9846 27.5481 15.6782 27.0476 15.3941C26.7898 15.2521 26.5622 15.3194 26.5319 15.5361C26.4788 15.9622 26.4257 16.3882 26.3726 16.8142C26.3423 17.031 26.5395 17.3225 26.8125 17.4645C27.3434 17.7485 27.8666 18.0549 28.3899 18.3913C28.6554 18.5632 28.8829 18.5258 28.898 18.3091C28.9208 17.883 28.9511 17.4495 28.9815 17.0235Z" fill="white"/>
<path d="M31.6965 19.1761C31.6965 18.9594 31.4993 18.5932 31.2566 18.3839C30.7788 17.9653 30.2935 17.5692 29.8005 17.203C29.5502 17.0161 29.3379 17.046 29.3227 17.2702C29.3 17.6963 29.2696 18.1298 29.2469 18.5558C29.2317 18.7725 29.4365 19.1014 29.7019 19.2883C30.2176 19.662 30.7257 20.0506 31.2263 20.4766C31.4841 20.6934 31.6889 20.6934 31.6889 20.4692C31.6889 20.0357 31.6965 19.6096 31.6965 19.1761Z" fill="white"/>
<path d="M16.6879 15.4241C16.7637 15.2149 16.5893 15.043 16.3087 15.0504C15.755 15.0579 15.1938 15.0878 14.6402 15.1476C14.3596 15.1775 14.0562 15.3793 13.9728 15.5811C13.806 15.9772 13.6391 16.3734 13.4723 16.7695C13.3888 16.9713 13.5557 17.1058 13.8515 17.0834C14.4278 17.0311 15.0118 17.0087 15.5882 17.0087C15.884 17.0087 16.1873 16.8517 16.2556 16.6424C16.3997 16.2388 16.5438 15.8278 16.6879 15.4241Z" fill="white"/>
<path d="M31.6803 21.5753C31.6803 21.3585 31.4755 20.9923 31.2177 20.783C30.7096 20.3645 30.2014 19.9683 29.6857 19.5946C29.4203 19.4078 29.1927 19.4377 29.1852 19.6544C29.1624 20.0804 29.1321 20.5139 29.1093 20.94C29.0942 21.1567 29.3141 21.4856 29.5871 21.6724C30.1256 22.0461 30.6641 22.4423 31.1949 22.8608C31.468 23.0776 31.6803 23.0776 31.6803 22.8533C31.6803 22.4348 31.6803 22.0013 31.6803 21.5753Z" fill="white"/>
<path d="M15.8756 17.6814C15.9515 17.4722 15.7695 17.3003 15.4737 17.2928C14.8898 17.2928 14.3058 17.3152 13.7294 17.3601C13.4337 17.3825 13.1227 17.5768 13.0393 17.7861C12.8725 18.1822 12.7056 18.5783 12.5388 18.9745C12.4554 19.1763 12.6298 19.3183 12.9407 19.2958C13.5398 19.251 14.1465 19.2435 14.7532 19.251C15.0642 19.2585 15.3751 19.1015 15.451 18.8922C15.5875 18.4961 15.7315 18.0925 15.8756 17.6814Z" fill="white"/>
<path d="M22.3522 18.8475C22.3977 18.6308 22.1929 18.3767 21.9047 18.2944C21.3284 18.1225 20.752 17.9731 20.1757 17.846C19.8799 17.7787 19.5917 17.9058 19.5386 18.1225C19.4249 18.5411 19.3111 18.9522 19.1974 19.3707C19.1367 19.58 19.3414 19.8042 19.6524 19.8715C20.2591 20.006 20.8582 20.163 21.4649 20.3424C21.7758 20.432 22.0564 20.3349 22.1019 20.1181C22.1777 19.6921 22.2612 19.2661 22.3522 18.8475Z" fill="white"/>
<path d="M25.5389 20.1032C25.5692 19.8864 25.3569 19.595 25.0687 19.4679C24.4999 19.2138 23.9311 18.9821 23.3623 18.7728C23.0741 18.6682 22.8011 18.7578 22.7556 18.9746C22.6722 19.3932 22.5888 19.8192 22.5053 20.2377C22.4598 20.4545 22.6722 20.7086 22.9831 20.8207C23.5823 21.0375 24.1814 21.2692 24.7729 21.5233C25.0763 21.6503 25.3417 21.5906 25.3721 21.3663C25.4251 20.9552 25.4782 20.5292 25.5389 20.1032Z" fill="white"/>
<path d="M28.6617 21.7998C28.6769 21.5831 28.457 21.2542 28.1764 21.0898C27.6227 20.7535 27.0615 20.447 26.5003 20.1555C26.2121 20.006 25.9618 20.0733 25.9315 20.2901C25.8784 20.7161 25.8253 21.1421 25.7722 21.5681C25.7419 21.7849 25.9694 22.0764 26.2652 22.2259C26.8568 22.5174 27.4407 22.8313 28.0171 23.1676C28.3129 23.3395 28.5632 23.3021 28.5783 23.0854C28.6011 22.6594 28.6314 22.2333 28.6617 21.7998Z" fill="white"/>
<path d="M31.673 23.9675C31.673 23.7507 31.4606 23.3845 31.1876 23.1752C30.6567 22.7566 30.1183 22.3605 29.5723 21.9868C29.2917 21.8 29.0566 21.8299 29.0414 22.0466C29.0186 22.4726 28.9883 22.9061 28.9656 23.3322C28.9504 23.5489 29.1779 23.8778 29.4661 24.0721C30.0349 24.4458 30.5961 24.8419 31.1497 25.2605C31.4303 25.4772 31.6578 25.4772 31.6578 25.253C31.673 24.827 31.673 24.401 31.673 23.9675Z" fill="white"/>
<path d="M15.0724 19.9461C15.1483 19.7368 14.9511 19.5574 14.6477 19.5499C14.041 19.535 13.4267 19.5499 12.8276 19.5948C12.5167 19.6172 12.1982 19.8041 12.1147 20.0059C11.9479 20.402 11.7811 20.7981 11.6142 21.1943C11.5308 21.3961 11.7204 21.5456 12.0389 21.5231C12.6684 21.4932 13.2978 21.4858 13.9273 21.5082C14.2534 21.5157 14.5719 21.3662 14.6477 21.1569C14.7767 20.7533 14.9283 20.3497 15.0724 19.9461Z" fill="white"/>
<path d="M28.5028 24.1913C28.518 23.9746 28.2905 23.6457 27.9947 23.4738C27.4108 23.1375 26.8268 22.8236 26.2353 22.5321C25.9319 22.3826 25.6665 22.4424 25.6361 22.6666C25.5831 23.0926 25.53 23.5187 25.4769 23.9447C25.4465 24.1614 25.6816 24.4604 26.0002 24.6099C26.6145 24.9088 27.2287 25.2228 27.843 25.5591C28.154 25.731 28.4118 25.7011 28.427 25.4769C28.4498 25.0509 28.4725 24.6174 28.5028 24.1913Z" fill="white"/>
<path d="M31.6661 26.3589C31.6661 26.1421 31.4386 25.7759 31.158 25.5666C30.6044 25.148 30.0356 24.7519 29.4669 24.3782C29.1787 24.1913 28.9284 24.2212 28.9132 24.438C28.8905 24.864 28.8602 25.2975 28.8374 25.7236C28.8222 25.9403 29.0649 26.2692 29.3683 26.4635C29.9674 26.8372 30.5513 27.2333 31.1353 27.6594C31.431 27.8761 31.6661 27.8761 31.6661 27.6519C31.6586 27.2184 31.6661 26.7924 31.6661 26.3589Z" fill="white"/>
<path d="M14.2602 22.2032C14.3361 21.9939 14.1313 21.807 13.8052 21.7996C13.1681 21.7771 12.5387 21.7846 11.9092 21.8145C11.5907 21.8295 11.257 22.0163 11.1736 22.2181C11.0067 22.6143 10.8399 23.0104 10.673 23.4065C10.5896 23.6083 10.7868 23.7578 11.1205 23.7503C11.7727 23.7279 12.4249 23.7354 13.0847 23.7653C13.4184 23.7802 13.7521 23.6307 13.8279 23.4215C13.972 23.0104 14.1161 22.6068 14.2602 22.2032Z" fill="white"/>
<path d="M21.3751 23.5413C21.4206 23.3245 21.1931 23.0704 20.867 22.9732C20.2299 22.7864 19.5929 22.622 18.9558 22.4799C18.6297 22.4052 18.3188 22.5248 18.2581 22.7415C18.1444 23.1526 18.0306 23.5712 17.9168 23.9897C17.8562 24.199 18.0837 24.4307 18.425 24.5054C19.0923 24.6549 19.7521 24.8268 20.4119 25.0212C20.7532 25.1183 21.0566 25.0286 21.1021 24.8119C21.2007 24.3859 21.2917 23.9598 21.3751 23.5413Z" fill="white"/>
<path d="M24.8999 24.8492C24.9303 24.6325 24.6952 24.341 24.3766 24.2065C23.7472 23.9449 23.1177 23.7057 22.4882 23.4815C22.1697 23.3694 21.8664 23.459 21.8285 23.6758C21.745 24.0943 21.6616 24.5204 21.5782 24.9389C21.5327 25.1557 21.7754 25.4173 22.1091 25.5294C22.7689 25.7536 23.4287 26.0003 24.0809 26.2618C24.4146 26.3964 24.7103 26.3366 24.7331 26.1124C24.7862 25.7013 24.8393 25.2753 24.8999 24.8492Z" fill="white"/>
<path d="M28.3436 26.5828C28.3588 26.366 28.1161 26.0372 27.8052 25.8653C27.1909 25.5289 26.5766 25.2075 25.9547 24.916C25.6362 24.7666 25.3556 24.8264 25.3328 25.0431C25.2798 25.4691 25.2267 25.8952 25.1736 26.3212C25.1432 26.5379 25.3935 26.8369 25.7196 26.9864C26.3642 27.2854 27.0089 27.6067 27.6459 27.9431C27.972 28.115 28.245 28.0851 28.2602 27.8609C28.2905 27.4423 28.3209 27.0088 28.3436 26.5828Z" fill="white"/>
<path d="M31.6514 28.7582C31.6514 28.5415 31.4163 28.1752 31.1205 27.9659C30.5365 27.5474 29.945 27.1513 29.3459 26.7701C29.0425 26.5758 28.7771 26.6057 28.7695 26.8299C28.7467 27.2559 28.7164 27.6894 28.6936 28.1154C28.6785 28.3322 28.9287 28.661 29.2473 28.8554C29.8692 29.2291 30.4835 29.6327 31.0902 30.0512C31.4011 30.268 31.6438 30.268 31.6438 30.0437C31.6514 29.6177 31.6514 29.1842 31.6514 28.7582Z" fill="white"/>
<path d="M13.4575 24.4608C13.5334 24.2515 13.321 24.0646 12.9797 24.0497C12.32 24.0198 11.6602 24.0123 11.008 24.0347C10.6743 24.0422 10.333 24.2291 10.2496 24.4309C10.0827 24.827 9.91589 25.2231 9.74904 25.6193C9.66562 25.8211 9.87038 25.978 10.2192 25.9705C10.8942 25.9556 11.5767 25.9705 12.2593 26.0079C12.6081 26.0303 12.9494 25.8808 13.0253 25.6716C13.1618 25.268 13.3058 24.8644 13.4575 24.4608Z" fill="white"/>
<path d="M20.8892 25.888C20.9347 25.6712 20.692 25.4097 20.3583 25.3125C19.6909 25.1182 19.0236 24.9463 18.3562 24.7968C18.0149 24.722 17.6964 24.8341 17.6357 25.0509C17.522 25.462 17.4082 25.8805 17.2945 26.2991C17.2338 26.5083 17.4765 26.74 17.8329 26.8222C18.523 26.9792 19.2208 27.1586 19.9109 27.3529C20.2673 27.4501 20.5858 27.3679 20.6313 27.1511C20.7148 26.7251 20.8058 26.3065 20.8892 25.888Z" fill="white"/>
<path d="M24.5827 27.2256C24.613 27.0088 24.3627 26.7173 24.0291 26.5828C23.3693 26.3212 22.7095 26.0745 22.0497 25.8428C21.7084 25.7307 21.4051 25.8129 21.3595 26.0297C21.2761 26.4482 21.1927 26.8743 21.1093 27.2928C21.0638 27.5096 21.314 27.7712 21.6705 27.8907C22.3606 28.1224 23.0507 28.3691 23.7333 28.6382C24.0821 28.7727 24.3855 28.7129 24.4158 28.4962C24.4689 28.0776 24.522 27.6516 24.5827 27.2256Z" fill="white"/>
<path d="M28.1923 28.975C28.2075 28.7583 27.9572 28.4294 27.6311 28.2575C26.9941 27.9137 26.3419 27.5998 25.6897 27.3008C25.356 27.1513 25.0678 27.2111 25.0375 27.4279C24.9844 27.8539 24.9313 28.2799 24.8782 28.7059C24.8479 28.9227 25.1057 29.2217 25.4546 29.3786C26.1295 29.6776 26.8045 29.999 27.4718 30.3428C27.8131 30.5147 28.0937 30.4848 28.1089 30.268C28.1316 29.8271 28.162 29.401 28.1923 28.975Z" fill="white"/>
<path d="M31.6427 31.15C31.6427 30.9333 31.4 30.567 31.0891 30.3577C30.4824 29.9392 29.8605 29.5356 29.2386 29.1619C28.9201 28.9676 28.6471 28.9974 28.6319 29.2217C28.6092 29.6477 28.5789 30.0812 28.5561 30.5072C28.5409 30.724 28.8064 31.0528 29.14 31.2472C29.7923 31.6209 30.4369 32.0245 31.0663 32.443C31.3848 32.6598 31.6427 32.6598 31.6427 32.443C31.6427 32.0095 31.6427 31.5835 31.6427 31.15Z" fill="white"/>
<path d="M12.6456 26.7178C12.7214 26.5086 12.4939 26.3142 12.145 26.2993C11.4549 26.2619 10.7724 26.247 10.0974 26.2544C9.74857 26.2619 9.4073 26.4413 9.3163 26.6431C9.14945 27.0392 8.98261 27.4353 8.81577 27.8315C8.73234 28.0333 8.94469 28.1902 9.30113 28.1902C9.99884 28.1902 10.7041 28.2127 11.417 28.2575C11.781 28.2799 12.1375 28.1379 12.2057 27.9286C12.3574 27.5325 12.5015 27.1214 12.6456 26.7178Z" fill="white"/>
<path d="M16.5121 27.2634C16.5728 27.0542 16.3301 26.8225 15.9813 26.7552C15.2836 26.6281 14.5934 26.531 13.8957 26.4488C13.5393 26.4114 13.198 26.5534 13.1222 26.7627C12.9781 27.1663 12.8416 27.5774 12.6975 27.981C12.6217 28.1902 12.8643 28.3846 13.2284 28.4294C13.9488 28.5191 14.6617 28.6312 15.3897 28.7583C15.7613 28.8255 16.1026 28.7134 16.1633 28.5042C16.277 28.0931 16.3984 27.6745 16.5121 27.2634Z" fill="white"/>
<path d="M20.4031 28.235C20.4486 28.0183 20.1983 27.7567 19.8419 27.6521C19.1442 27.4503 18.4465 27.2784 17.7488 27.1139C17.3923 27.0317 17.0586 27.1438 16.998 27.3606C16.8842 27.7791 16.7705 28.1902 16.6567 28.6087C16.596 28.818 16.8463 29.0572 17.2179 29.1394C17.9384 29.3038 18.6664 29.4907 19.3869 29.6925C19.7585 29.7971 20.0922 29.7149 20.1377 29.4982C20.2287 29.0721 20.3121 28.6536 20.4031 28.235Z" fill="white"/>
<path d="M24.2638 29.6028C24.2941 29.386 24.0363 29.0871 23.6798 28.9525C22.9897 28.6835 22.2996 28.4293 21.6094 28.2051C21.253 28.0855 20.9345 28.1752 20.889 28.392C20.8055 28.8105 20.7221 29.2366 20.6387 29.6551C20.5932 29.8719 20.8586 30.1409 21.2226 30.2605C21.9431 30.4997 22.6636 30.7538 23.3765 31.0229C23.7405 31.1649 24.059 31.1051 24.0893 30.8883C24.1424 30.4548 24.2031 30.0288 24.2638 29.6028Z" fill="white"/>
<path d="M28.0332 31.3593C28.0484 31.1425 27.783 30.8137 27.4417 30.6418C26.7743 30.2979 26.0993 29.9766 25.4168 29.6776C25.0679 29.5206 24.7646 29.5804 24.7343 29.7972C24.6812 30.2232 24.6281 30.6492 24.575 31.0753C24.5447 31.292 24.8177 31.591 25.1817 31.7479C25.887 32.0544 26.5923 32.3758 27.2824 32.7196C27.6389 32.8915 27.9346 32.8616 27.9498 32.6449C27.9726 32.2188 28.0029 31.7928 28.0332 31.3593Z" fill="white"/>
<path d="M31.6356 33.5492C31.6356 33.3325 31.3778 32.9662 31.0593 32.757C30.4298 32.3384 29.7776 31.9348 29.1254 31.5611C28.7918 31.3668 28.5112 31.3967 28.496 31.6209C28.4732 32.0469 28.4429 32.4804 28.4202 32.9065C28.405 33.1232 28.678 33.4521 29.0269 33.6464C29.7018 34.0276 30.3767 34.4237 31.0289 34.8423C31.3626 35.059 31.6281 35.059 31.6281 34.8423C31.6281 34.4088 31.6356 33.9753 31.6356 33.5492Z" fill="white"/>
<path d="M34.5254 18.5483C34.5406 18.7651 34.3358 19.0939 34.0704 19.2808C33.5547 19.6545 33.0465 20.0431 32.546 20.4692C32.2882 20.6859 32.0834 20.6859 32.0834 20.4617C32.0834 20.0357 32.0834 19.6022 32.0758 19.1761C32.0758 18.9594 32.273 18.5932 32.5157 18.3839C32.9935 17.9653 33.4788 17.5692 33.9718 17.203C34.222 17.0161 34.4344 17.046 34.4495 17.2702C34.4799 17.6963 34.5026 18.1223 34.5254 18.5483Z" fill="white"/>
<path d="M37.2386 15.5361C37.2083 15.3194 36.9808 15.2521 36.7229 15.3941C36.2224 15.6782 35.7219 15.9846 35.2214 16.3135C34.9711 16.4779 34.7739 16.7993 34.7891 17.0235C34.8194 17.4495 34.8422 17.883 34.8725 18.3091C34.8877 18.5258 35.1152 18.5632 35.3806 18.3913C35.9039 18.0624 36.4272 17.7485 36.958 17.4645C37.231 17.315 37.4282 17.031 37.3979 16.8142C37.3524 16.3882 37.2993 15.9622 37.2386 15.5361Z" fill="white"/>
<path d="M40.0915 14.2808C40.046 14.0641 39.8033 13.9669 39.5379 14.0641C39.0298 14.2659 38.5141 14.4826 38.0136 14.7293C37.7557 14.8563 37.5737 15.1403 37.5965 15.3571C37.6571 15.7831 37.7102 16.2091 37.7709 16.6352C37.8012 16.8519 38.0439 16.9192 38.3169 16.7996C38.8478 16.553 39.3862 16.3287 39.9247 16.1269C40.1977 16.0223 40.3873 15.7682 40.3418 15.5514C40.2584 15.1254 40.1749 14.6994 40.0915 14.2808Z" fill="white"/>
<path d="M42.9816 13.4887C42.9209 13.2794 42.6631 13.1449 42.3976 13.2047C41.8819 13.3168 41.3587 13.4588 40.843 13.6158C40.5775 13.698 40.4031 13.9446 40.4486 14.1614C40.5396 14.5799 40.623 15.006 40.714 15.4245C40.7595 15.6413 41.0174 15.7384 41.298 15.6562C41.8364 15.4918 42.3825 15.3498 42.9285 15.2302C43.2091 15.1704 43.3835 14.9536 43.3304 14.7369C43.2015 14.3183 43.0953 13.8998 42.9816 13.4887Z" fill="white"/>
<path d="M45.9092 13.1744C45.8334 12.9651 45.5603 12.8007 45.2873 12.8156C44.7565 12.838 44.2332 12.8904 43.7099 12.9651C43.4444 13.0025 43.2776 13.2117 43.3383 13.421C43.452 13.8321 43.5734 14.2506 43.6871 14.6617C43.7478 14.871 44.0208 15.0055 44.3014 14.9682C44.8475 14.8859 45.4011 14.8262 45.9547 14.7963C46.2353 14.7813 46.4022 14.6019 46.3339 14.3927C46.1974 13.9816 46.0533 13.578 45.9092 13.1744Z" fill="white"/>
<path d="M48.8803 13.3689C48.7969 13.1671 48.5011 12.9653 48.2357 12.9279C47.7048 12.8606 47.1664 12.8158 46.6355 12.8008C46.3625 12.7934 46.2032 12.9578 46.2791 13.1671C46.4232 13.5707 46.5673 13.9743 46.7114 14.3854C46.7872 14.5946 47.0754 14.7591 47.356 14.7591C47.9096 14.7665 48.4632 14.8039 49.0168 14.8637C49.2974 14.8936 49.4567 14.7591 49.3732 14.5573C49.214 14.1611 49.0471 13.765 48.8803 13.3689Z" fill="white"/>
<path d="M34.5927 19.6548C34.5776 19.438 34.35 19.4006 34.0922 19.595C33.5765 19.9687 33.0608 20.3648 32.5603 20.7834C32.3024 21.0001 32.0977 21.3589 32.0977 21.5756C32.0977 22.0016 32.0977 22.4351 32.1052 22.8612C32.1052 23.0854 32.3252 23.0779 32.5906 22.8686C33.1215 22.4501 33.6523 22.054 34.1984 21.6802C34.4714 21.4934 34.6913 21.1645 34.6761 20.9478C34.6382 20.5143 34.6155 20.0883 34.5927 19.6548Z" fill="white"/>
<path d="M46.698 15.4396C46.6222 15.2303 46.334 15.0733 46.0534 15.0883C45.4998 15.1257 44.9462 15.1855 44.3926 15.2677C44.112 15.3125 43.9299 15.5218 43.9906 15.7311C44.1044 16.1422 44.2257 16.5607 44.3395 16.9718C44.4001 17.1811 44.6883 17.3156 44.9841 17.2708C45.5605 17.1811 46.1368 17.1138 46.7208 17.0689C47.0166 17.0465 47.1986 16.8671 47.1227 16.6579C46.9862 16.2468 46.8421 15.8432 46.698 15.4396Z" fill="white"/>
<path d="M49.8056 15.5811C49.7222 15.3793 49.4188 15.1775 49.1382 15.1476C48.577 15.0878 48.0233 15.0579 47.4697 15.0504C47.1891 15.043 47.0146 15.2223 47.0905 15.4241C47.2346 15.8277 47.3787 16.2313 47.5228 16.6424C47.5986 16.8517 47.8944 17.0087 48.1902 17.0087C48.7666 17.0087 49.3506 17.0311 49.927 17.0834C50.2227 17.1058 50.3896 16.9713 50.3062 16.7695C50.1393 16.3734 49.9725 15.9772 49.8056 15.5811Z" fill="white"/>
<path d="M34.7292 22.0462C34.7141 21.8294 34.479 21.7921 34.1984 21.9864C33.6523 22.3601 33.1139 22.7562 32.583 23.1748C32.31 23.3915 32.0977 23.7503 32.0977 23.967C32.0977 24.3931 32.0977 24.8266 32.1052 25.2526C32.1052 25.4768 32.3328 25.4693 32.6134 25.2601C33.167 24.8415 33.7282 24.4454 34.297 24.0717C34.5851 23.8848 34.8126 23.556 34.7975 23.3317C34.7747 22.9057 34.752 22.4722 34.7292 22.0462Z" fill="white"/>
<path d="M41.0229 18.9821C40.9774 18.7654 40.7044 18.6682 40.4162 18.7803C39.8474 18.9896 39.271 19.2213 38.7098 19.4754C38.4216 19.6025 38.2093 19.894 38.2396 20.1107C38.3003 20.5368 38.3534 20.9628 38.4141 21.3888C38.4444 21.6056 38.7098 21.6728 39.0132 21.5458C39.6047 21.2917 40.2039 21.0525 40.803 20.8432C41.1063 20.7311 41.3187 20.477 41.2808 20.2602C41.1898 19.8267 41.1063 19.4007 41.0229 18.9821Z" fill="white"/>
<path d="M44.2396 18.115C44.179 17.9057 43.8908 17.7787 43.6026 17.8384C43.0262 17.9655 42.4499 18.115 41.8735 18.2869C41.5778 18.3766 41.3806 18.6307 41.4261 18.84C41.5171 19.2585 41.6005 19.6846 41.6915 20.1031C41.737 20.3199 42.0176 20.417 42.3285 20.3273C42.9277 20.148 43.5344 19.991 44.1411 19.8565C44.452 19.7892 44.6492 19.565 44.5961 19.3557C44.4672 18.9446 44.3534 18.5261 44.2396 18.115Z" fill="white"/>
<path d="M50.7388 17.7937C50.6554 17.5919 50.3444 17.3976 50.0487 17.3677C49.4647 17.3154 48.8807 17.293 48.3044 17.3004C48.0086 17.3004 47.8266 17.4798 47.9024 17.6891C48.0465 18.0927 48.1906 18.4963 48.3347 18.9074C48.4105 19.1167 48.7215 19.2736 49.0324 19.2662C49.6391 19.2587 50.2459 19.2736 50.845 19.311C51.1559 19.3334 51.3304 19.1914 51.2469 18.9896C51.0725 18.586 50.9057 18.1899 50.7388 17.7937Z" fill="white"/>
<path d="M34.8647 24.438C34.8495 24.2212 34.5992 24.1838 34.311 24.3782C33.7423 24.7519 33.1735 25.148 32.6199 25.5666C32.3393 25.7833 32.1118 26.1421 32.1118 26.3588C32.1118 26.7848 32.1118 27.2183 32.1193 27.6444C32.1193 27.8686 32.3544 27.8611 32.6502 27.6518C33.2266 27.2333 33.8181 26.8372 34.4172 26.456C34.7206 26.2617 34.9633 25.9403 34.9481 25.716C34.9178 25.2975 34.8874 24.864 34.8647 24.438Z" fill="white"/>
<path d="M41.4858 21.3289C41.4403 21.1121 41.1597 21.0224 40.8488 21.1271C40.2496 21.3438 39.6429 21.5755 39.0514 21.8371C38.748 21.9642 38.5281 22.2557 38.5509 22.4724C38.6115 22.8985 38.6646 23.3245 38.7253 23.7505C38.7556 23.9673 39.0362 24.0345 39.3548 23.9C39.9766 23.6384 40.6061 23.3992 41.2355 23.1825C41.5541 23.0704 41.7816 22.8088 41.7361 22.592C41.6526 22.1735 41.5692 21.7549 41.4858 21.3289Z" fill="white"/>
<path d="M44.8769 20.4245C44.8162 20.2152 44.5204 20.0882 44.2095 20.1554C43.6028 20.29 42.9961 20.4469 42.3894 20.6263C42.0784 20.716 41.8661 20.9701 41.9116 21.1869C42.0026 21.6054 42.086 22.0314 42.177 22.45C42.2225 22.6667 42.5183 22.7564 42.8444 22.6667C43.4739 22.4799 44.1109 22.3155 44.7404 22.1734C45.0665 22.0987 45.2788 21.8745 45.2181 21.6652C45.1044 21.2541 44.9906 20.843 44.8769 20.4245Z" fill="white"/>
<path d="M51.6721 20.0056C51.5887 19.8038 51.2701 19.6095 50.9592 19.5946C50.3525 19.5572 49.7458 19.5422 49.1391 19.5497C48.8281 19.5572 48.6386 19.7366 48.7144 19.9458C48.8585 20.3495 49.0026 20.7531 49.1467 21.1641C49.2225 21.3734 49.541 21.5229 49.8671 21.5154C50.4966 21.493 51.126 21.5005 51.7555 21.5304C52.074 21.5453 52.2636 21.4033 52.1802 21.2015C52.0058 20.7979 51.8389 20.4018 51.6721 20.0056Z" fill="white"/>
<path d="M35.003 26.8298C34.9878 26.6131 34.73 26.5832 34.4266 26.77C33.8275 27.1437 33.2359 27.5399 32.652 27.9659C32.3562 28.1826 32.1211 28.5414 32.1211 28.7581C32.1211 29.1916 32.1211 29.6177 32.1287 30.0437C32.1287 30.2679 32.3789 30.2604 32.6823 30.0512C33.289 29.6326 33.9033 29.229 34.5252 28.8553C34.8437 28.661 35.094 28.3396 35.0788 28.1154C35.0561 27.6893 35.0333 27.2558 35.003 26.8298Z" fill="white"/>
<path d="M41.9576 23.6828C41.9121 23.4661 41.6164 23.3764 41.2979 23.4885C40.6684 23.7053 40.0314 23.9519 39.4095 24.2135C39.091 24.348 38.8559 24.6395 38.8862 24.8563C38.9469 25.2823 39 25.7083 39.0607 26.1344C39.091 26.3511 39.3792 26.4184 39.7129 26.2838C40.3651 26.0223 41.0248 25.7756 41.6846 25.5514C42.0183 25.4393 42.261 25.1777 42.2155 24.9609C42.1245 24.5274 42.0411 24.1014 41.9576 23.6828Z" fill="white"/>
<path d="M45.5064 22.7337C45.4457 22.5244 45.1348 22.4048 44.8087 22.4721C44.1716 22.6141 43.5346 22.7785 42.8976 22.9654C42.5714 23.0626 42.3515 23.3167 42.3894 23.5334C42.4804 23.952 42.5639 24.378 42.6549 24.7966C42.7004 25.0133 43.0113 25.103 43.345 25.0058C44.0048 24.8115 44.6722 24.6471 45.332 24.4901C45.6732 24.4154 45.9007 24.1837 45.8401 23.9744C45.7339 23.5633 45.6201 23.1523 45.5064 22.7337Z" fill="white"/>
<path d="M52.5978 22.2181C52.5144 22.0163 52.1807 21.8295 51.8622 21.8145C51.2327 21.7846 50.5957 21.7771 49.9662 21.7996C49.6401 21.807 49.4429 21.9939 49.5111 22.2032C49.6552 22.6068 49.7993 23.0104 49.9434 23.4215C50.0193 23.6307 50.353 23.7802 50.6867 23.7653C51.3465 23.7354 51.9987 23.7279 52.6509 23.7503C52.9846 23.7578 53.1818 23.6158 53.0984 23.4065C52.9315 23.0104 52.7647 22.6143 52.5978 22.2181Z" fill="white"/>
<path d="M35.1398 29.2216C35.1246 29.0048 34.8516 28.9749 34.5331 29.1618C33.9036 29.5355 33.2893 29.9391 32.6825 30.3577C32.3716 30.5744 32.1289 30.9332 32.1289 31.1499C32.1289 31.5759 32.1289 32.0094 32.1365 32.4355C32.1365 32.6597 32.3943 32.6522 32.7129 32.4355C33.3424 32.0169 33.987 31.6133 34.6392 31.2396C34.9729 31.0453 35.2308 30.7164 35.2232 30.4997C35.1929 30.0811 35.1701 29.6476 35.1398 29.2216Z" fill="white"/>
<path d="M49.8595 24.4982C49.7836 24.2889 49.4499 24.1469 49.1162 24.1768C48.4488 24.2441 47.7814 24.3413 47.1141 24.4608C46.7728 24.5206 46.5453 24.7449 46.6059 24.9616C46.7197 25.3727 46.841 25.7912 46.9548 26.2023C47.0155 26.4116 47.3492 26.5312 47.7056 26.4639C48.3958 26.3443 49.0935 26.2397 49.776 26.1575C50.1249 26.1201 50.3524 25.9258 50.2766 25.7165C50.1401 25.3129 49.996 24.9018 49.8595 24.4982Z" fill="white"/>
<path d="M53.5301 24.4309C53.4467 24.2291 53.1054 24.0422 52.7717 24.0347C52.1195 24.0123 51.4597 24.0198 50.7999 24.0497C50.4662 24.0646 50.2462 24.2515 50.3221 24.4608C50.4662 24.8644 50.6103 25.268 50.7544 25.6791C50.8302 25.8883 51.1715 26.0303 51.5203 26.0154C52.2029 25.978 52.8855 25.9631 53.5604 25.978C53.9017 25.9855 54.1141 25.836 54.0306 25.6267C53.8638 25.2231 53.697 24.827 53.5301 24.4309Z" fill="white"/>
<path d="M35.2827 31.613C35.2676 31.3963 34.987 31.3664 34.6533 31.5532C34.0011 31.9344 33.3564 32.3305 32.7194 32.7491C32.3933 32.9658 32.143 33.3246 32.143 33.5413C32.143 33.9674 32.143 34.4009 32.1506 34.8269C32.1506 35.0436 32.416 35.0436 32.7497 34.8269C33.4019 34.4083 34.0769 34.0047 34.7519 33.631C35.1007 33.4367 35.3737 33.1078 35.3586 32.8911C35.3282 32.4725 35.3055 32.039 35.2827 31.613Z" fill="white"/>
<path d="M39.0374 29.7972C39.0071 29.5804 38.7037 29.5206 38.3549 29.6776C37.6723 29.9766 36.9974 30.3054 36.33 30.6418C35.9887 30.8137 35.7309 31.1425 35.7384 31.3593C35.7688 31.7853 35.7915 32.2188 35.8219 32.6449C35.837 32.8616 36.1328 32.8915 36.4892 32.7196C37.1794 32.3758 37.8847 32.0544 38.59 31.7479C38.954 31.591 39.2194 31.292 39.1967 31.0753C39.1436 30.6492 39.0905 30.2232 39.0374 29.7972Z" fill="white"/>
<path d="M42.8895 28.3844C42.844 28.1676 42.5255 28.0854 42.1691 28.1975C41.4789 28.4292 40.7812 28.6759 40.0987 28.9449C39.7498 29.0795 39.492 29.3784 39.5147 29.5952C39.5754 30.0212 39.6285 30.4472 39.6891 30.8732C39.7195 31.09 40.038 31.1498 40.402 31.0078C41.1149 30.7312 41.8354 30.4771 42.5558 30.2454C42.9199 30.1258 43.1853 29.8568 43.1398 29.64C43.0564 29.2289 42.973 28.8029 42.8895 28.3844Z" fill="white"/>
<path d="M46.7722 27.3605C46.7115 27.1512 46.3779 27.0317 46.0214 27.1139C45.3237 27.2708 44.626 27.4502 43.9283 27.652C43.5719 27.7566 43.3216 28.0182 43.3671 28.235C43.4581 28.6535 43.5415 29.0795 43.6325 29.4981C43.678 29.7148 44.0117 29.7971 44.3833 29.6924C45.1038 29.4906 45.8318 29.3038 46.5523 29.1393C46.9239 29.0571 47.1742 28.818 47.1135 28.6087C46.9997 28.1901 46.886 27.7791 46.7722 27.3605Z" fill="white"/>
<path d="M50.6488 26.7627C50.5729 26.5534 50.2317 26.4114 49.8752 26.4488C49.1851 26.531 48.4873 26.6281 47.7896 26.7552C47.4332 26.815 47.1981 27.0467 47.2587 27.2634C47.3725 27.6745 47.4938 28.0931 47.6076 28.5042C47.6683 28.7134 48.0171 28.8255 48.3812 28.7583C49.1016 28.6237 49.8221 28.5191 50.5426 28.4294C50.9066 28.3846 51.1417 28.1828 51.0735 27.981C50.9294 27.5774 50.7929 27.1663 50.6488 26.7627Z" fill="white"/>
<path d="M54.4556 26.6431C54.3722 26.4413 54.0233 26.262 53.6745 26.2545C52.9995 26.2396 52.3094 26.262 51.6269 26.2993C51.278 26.3218 51.0505 26.5086 51.1264 26.7179C51.2704 27.1215 51.4145 27.5251 51.5586 27.9362C51.6345 28.1454 51.9909 28.2874 52.3473 28.265C53.0602 28.2202 53.7655 28.1903 54.4632 28.1977C54.8196 28.1977 55.0396 28.0408 54.9486 27.839C54.7893 27.4354 54.6225 27.0393 54.4556 26.6431Z" fill="white"/>
<path d="M22.9937 45.5018C23.2529 45.8922 23.4258 46.2684 23.5914 46.6871C23.7138 46.9284 23.7787 47.3827 24.3548 47.3827C24.5204 47.3827 24.7653 47.3259 24.9813 47.2123C25.2262 47.0846 25.4134 46.9 25.5071 46.609L25.7375 45.8425L26.2993 45.5657L26.3353 45.6083C26.2632 45.8993 26.2416 46.169 26.2416 46.389C26.2416 47.0278 26.8034 47.2762 27.2499 47.2762C27.5091 47.2762 27.7468 47.1484 27.7468 46.9142C27.7468 46.609 27.6172 46.0909 27.4443 45.6296C27.7036 45.3741 27.97 45.1115 28.2653 44.8985L28.3085 44.9198C28.4382 45.4663 28.5174 46.0057 28.5174 46.3677C28.5174 46.7226 28.3589 47.113 28.2293 47.3685C27.9556 47.8724 27.4803 48.2699 26.9042 48.2699C26.4649 48.2699 25.9824 48.0498 25.6439 47.6524H25.6223C25.3054 48.0356 24.8157 48.3905 24.0307 48.3905H23.7859C23.7499 48.9015 23.6346 49.2564 23.469 49.5829C23.0009 50.4843 21.6182 51.116 20.3218 51.116C18.507 51.116 17.5996 50.0797 17.5996 48.7099C17.5996 47.8653 17.8805 47.0775 18.3126 46.5168L18.6655 46.6587C18.3918 47.1697 18.219 47.6524 18.219 48.1208C18.219 49.4055 19.2776 50.0158 20.5019 50.0158C21.6326 50.0158 23.0369 49.3061 23.2889 48.4828C23.1953 47.5814 22.8496 47.1626 22.3239 46.3393C22.4824 46.0625 22.6912 45.7928 22.9433 45.5018H22.9937V45.5018Z" fill="white"/>
<path d="M29.7556 44.5435L30.4182 45.6011C30.663 45.9914 30.8863 46.4173 30.8863 47.0915V47.9503C30.8863 48.6459 30.4398 49.3911 29.7124 50.1293C29.1435 50.6332 28.6394 50.839 28.1712 50.839C27.4799 50.839 26.6877 50.6261 25.7731 50.2358L25.8739 49.9731C26.162 50.0512 26.5004 50.1151 26.9109 50.1151C28.2289 50.108 29.5756 49.1569 30.1877 48C30.2597 47.8652 30.2885 47.7445 30.2885 47.6523C30.2885 47.5174 30.2165 47.3684 30.1589 47.2406C29.8204 46.616 29.4459 46.0411 29.0354 45.5159C29.2515 45.1823 29.4676 44.8558 29.698 44.5364L29.7556 44.5435Z" fill="white"/>
<path d="M31.6783 46.4529C31.7071 47.1272 32.0455 47.6595 33.2122 47.6595C33.9396 47.6595 34.5589 47.475 35.2431 47.1485C35.3655 47.0917 35.4303 47.0207 35.4303 46.964C35.4303 46.5381 35.1062 45.9845 34.5517 45.4735C34.0188 44.9979 33.3058 44.5721 32.6433 44.2882C32.42 44.1959 32.3408 44.0895 32.3408 43.9972C32.3408 43.7985 32.6001 43.3939 32.8161 43.1029L32.8881 43.0958C33.6443 43.4862 34.4941 44.0682 35.1207 44.714C35.6896 45.3102 36.0425 45.9135 36.0425 46.5665C36.0425 47.0491 35.8912 47.5105 35.6536 47.9363C34.8254 48.348 33.9324 48.6674 33.0538 48.6674C31.9879 48.6674 31.2606 48.1776 31.2606 47.0136C31.2606 46.8859 31.2606 46.6943 31.3038 46.4458H31.6783V46.4529Z" fill="white"/>
<path d="M37.2607 48.7099C37.3544 48.2201 37.3616 47.6594 37.3616 47.1413V46.3748C37.3616 44.9411 37.1743 42.8615 37.0231 41.5059C37.2823 41.222 37.6496 40.8955 37.9377 40.6755L38.0241 40.6968C38.2186 42.4002 38.269 44.3804 38.269 46.2044C38.269 46.68 38.2474 47.1484 38.2041 47.4962C38.1753 47.9291 37.9233 48.2556 37.3832 48.7596L37.2607 48.7099Z" fill="white"/>
<path d="M39.6299 45.8853C40.1629 46.957 40.6454 47.5745 41.7328 47.5745H41.8985V48.5752H41.704C41.2935 48.5752 40.9911 48.5042 40.7606 48.3268H40.7246C40.7318 48.4191 40.7462 48.5113 40.7462 48.6036C40.7462 48.9727 40.6238 49.4411 40.3717 49.8173C39.6371 50.9032 38.8306 51.3716 38.1392 51.3716C37.4406 51.3716 36.5764 51.109 35.8058 50.7613L35.9427 50.4986C36.1947 50.598 36.5404 50.669 37.0157 50.669C38.2688 50.669 39.9108 49.4766 40.1197 48.3197C40.0764 48.2274 39.99 48.0997 39.8676 47.9648C39.5003 47.5319 39.2699 47.177 39.0538 46.8008C39.2411 46.4389 39.4067 46.1479 39.5651 45.8924L39.6299 45.8853Z" fill="white"/>
<path d="M42.6831 47.5744C43.4896 47.5744 44.1882 47.5531 44.7211 47.4182C45.3189 47.2692 45.823 46.9711 45.823 46.7652C45.823 46.7085 45.823 46.6446 45.8014 46.5949C45.4629 46.6233 45.0812 46.6233 44.7427 46.6233C43.6625 46.6233 42.8271 46.382 42.503 45.7787C42.4166 45.6154 42.3662 45.4238 42.3662 45.218C42.3662 44.636 42.6182 44.0682 43.0647 43.6778C43.4392 43.3584 43.8497 43.1526 44.2674 43.1526C45.0236 43.1526 45.6285 43.7559 46.0534 44.6999C46.2839 45.218 46.4423 45.8142 46.4423 46.5594C46.4423 47.0633 46.3055 47.4821 45.9814 47.7944C45.3909 48.3551 44.3106 48.568 42.6471 48.568H41.8909C41.3796 48.568 41.2355 48.2557 41.2355 48.0428C41.2355 47.8583 41.3868 47.5673 41.8909 47.5673H42.6831V47.5744ZM44.0658 44.1817C43.4464 44.1817 42.9423 44.5792 42.9423 44.8773C42.9423 45.509 44.1738 45.7077 45.6501 45.7006C45.4629 44.9554 44.822 44.1817 44.0658 44.1817ZM43.8713 40.6685C44.253 40.9027 44.6275 41.1866 44.9948 41.506C44.7859 41.7899 44.5339 42.0454 44.217 42.2725C43.8497 41.9815 43.4896 41.7331 43.1152 41.4634C43.3672 41.1866 43.6193 40.9098 43.8713 40.6685Z" fill="white"/>
</svg>
