<?xml version="1.0" encoding="utf-8"?>
<!-- Generator: Adobe Illustrator 23.0.1, SVG Export Plug-In . SVG Version: 6.00 Build 0)  -->
<svg version="1.1" id="Layer_1" xmlns="http://www.w3.org/2000/svg" xmlns:xlink="http://www.w3.org/1999/xlink" x="0px" y="0px"
	 width="40px" height="40px" viewBox="0 0 40 40" style="enable-background:new 0 0 40 40;" xml:space="preserve">
<style type="text/css">
	.st0{fill:#D8D8D8;}
	.st1{fill:#AFAFAF;}
	.st2{fill:#1B95E0;}
	.st3{fill:#167ECC;}
	.st4{fill:#4B2746;}
	.st5{fill:#351B33;}
	.st6{fill:#FFD400;}
	.st7{fill:#613D5C;}
	.st8{fill:#73A3FF;}
	.st9{fill:#919191;}
	.st10{fill:#A1CCFF;}
	.st11{fill:#FFE159;}
	.st12{fill:#FFB43B;}
	.st13{fill:#FF9029;}
</style>
<path class="st0" d="M37.6,28.9v4.6l-16,1.2h-1.3H19L2.9,33.5v-4.6c0-0.6,0.5-1.2,1.2-1.2h11.6c1.9,0,3.6,0.9,4.6,2.3
	c1.1-1.4,2.7-2.3,4.6-2.3h11.6C37.1,27.7,37.6,28.3,37.6,28.9z"/>
<path class="st1" d="M37.6,28.9v4.6l-16,1.2h-1.3v-4.6c1.1-1.4,2.7-2.3,4.6-2.3h11.6C37.1,27.7,37.6,28.3,37.6,28.9z"/>
<g>
	<g>
		<g>
			<path class="st2" d="M40,33.5c0,0.6-0.5,1.2-1.2,1.2H27.9c-2.4,0-4.2,0.5-5.5,1.6C21.8,36.7,21,37,20.2,37s-1.6-0.3-2.2-0.8
				c-1.3-1-3.1-1.6-5.5-1.6H1.7c-0.6,0-1.2-0.5-1.2-1.2s0.5-1.2,1.2-1.2h10.9c2.9,0,5.2,0.7,6.9,2.1c0.1,0.1,0.4,0.3,0.7,0.3
				c0.3,0,0.6-0.1,0.7-0.3c1.7-1.4,4-2.1,6.9-2.1h10.9C39.4,32.4,40,32.9,40,33.5z"/>
		</g>
	</g>
</g>
<path class="st3" d="M40,33.5c0,0.6-0.5,1.2-1.2,1.2H27.9c-2.4,0-4.2,0.5-5.5,1.6C21.8,36.7,21,37,20.2,37v-2.3
	c0.3,0,0.6-0.1,0.7-0.3c1.7-1.4,4-2.1,6.9-2.1h10.9C39.4,32.4,40,32.9,40,33.5z"/>
<path class="st4" d="M28.3,13v6.6c0,0.4-0.2,0.8-0.6,1l-5.1,2.6c-0.6,0.3-1.1,0.6-1.5,1.1c-0.2,0.2-0.5,0.3-0.8,0.3
	c-0.3,0-0.6-0.1-0.8-0.3c-0.5-0.4-1-0.8-1.5-1.1l-5.1-2.6c-0.4-0.2-0.6-0.6-0.6-1V13c0-0.6,0.5-1.2,1.2-1.2h13.9
	C27.8,11.9,28.3,12.4,28.3,13L28.3,13z"/>
<path class="st5" d="M28.3,13v6.6c0,0.4-0.2,0.8-0.6,1l-5.1,2.6c-0.6,0.3-1.1,0.6-1.5,1.1c-0.2,0.2-0.5,0.3-0.8,0.3V11.9h6.9
	C27.8,11.9,28.3,12.4,28.3,13L28.3,13z"/>
<g>
	<path class="st6" d="M31.8,23.1c-0.6,0-1.2-0.5-1.2-1.2V11.7c0-0.6,0.5-1.2,1.2-1.2s1.2,0.5,1.2,1.2V22
		C33,22.6,32.4,23.1,31.8,23.1z"/>
</g>
<g>
	<g>
		<g>
			<g>
				<path class="st7" d="M36.7,9.3L20.5,4.7c-0.1,0-0.2,0-0.3,0c-0.1,0-0.2,0-0.3,0L3.7,9.3c-1.1,0.3-1.1,1.9,0,2.2l16.2,4.6
					c0.1,0,0.2,0,0.3,0c0.1,0,0.2,0,0.3,0l16.2-4.6C37.9,11.2,37.9,9.6,36.7,9.3z"/>
			</g>
		</g>
	</g>
</g>
<path class="st4" d="M36.7,11.5l-16.2,4.6c-0.1,0-0.2,0-0.3,0V4.6c0.1,0,0.2,0,0.3,0l16.2,4.6C37.9,9.6,37.9,11.2,36.7,11.5z"/>
</svg>
