<?xml version="1.0" encoding="utf-8"?>
<!-- Generator: Adobe Illustrator 23.0.1, SVG Export Plug-In . SVG Version: 6.00 Build 0)  -->
<svg version="1.1" id="Layer_1" xmlns="http://www.w3.org/2000/svg" xmlns:xlink="http://www.w3.org/1999/xlink" x="0px" y="0px"
	 width="40px" height="40px" viewBox="0 0 40 40" style="enable-background:new 0 0 40 40;" xml:space="preserve">
<style type="text/css">
	.st0{fill:#606161;}
	.st1{fill:#D1D1D1;}
	.st2{fill:#90908F;}
	.st3{fill:#FFFFFF;}
	.st4{fill:#FFC333;}
	.st5{fill:#FBB315;}
	.st6{fill:#F68E1E;}
	.st7{fill:#FFCA11;}
	.st8{fill:#F9A11B;}
	.st9{fill:#C76F29;}
</style>
<g>
	<path class="st0" d="M30.6,11.4v-7h3.2c1.7,0,3.2,1.4,3.2,3.2v3.8H30.6z"/>
	<path class="st1" d="M37,7.6c0,1.7-1.4,3.2-3.2,3.2H3.4c-1.7,0-3.2,1.4-3.2,3.2v21.5H37V7.6z"/>
	<path class="st2" d="M0.3,13.9v22.1c0,1.7,1.4,3.2,3.2,3.2H6V17.1H3.4C1.7,17.1,0.3,15.7,0.3,13.9z"/>
	<path class="st2" d="M9.8,14.6h2.5v2.5H9.8V14.6z"/>
	<path class="st2" d="M28.7,14.6h2.5v2.5h-2.5V14.6z"/>
	<g>
		<path class="st3" d="M9.1,21.5h1.3v1.3H9.1V21.5z"/>
		<path class="st3" d="M16.7,13.9H18v1.3h-1.3V13.9z"/>
		<path class="st3" d="M9.1,24.1h1.3v1.3H9.1V24.1z"/>
		<path class="st3" d="M16.7,31.7H18v1.3h-1.3V31.7z"/>
		<path class="st3" d="M23,13.9h1.3v1.3H23V13.9z"/>
		<path class="st3" d="M10.4,12.7H9.1v1.3H7.9v1.3h1.3v5.1h1.3v-5.1h5.1v-1.3h-5.1V12.7z"/>
		<path class="st3" d="M10.4,26.6H9.1v5.1H7.9v1.3h1.3v1.3h1.3v-1.3h5.1v-1.3h-5.1V26.6z"/>
		<path class="st3" d="M33.2,13.9h-1.3v-1.3h-1.3v1.3h-5.1v1.3h5.1v6.3h1.3v-6.3h1.3V13.9z"/>
	</g>
	<g>
		<path class="st4" d="M19.9,11.5L18,8.9V5.8H23v3.2l-1.9,2.5H19.9z"/>
		<path class="st5" d="M19.2,5.8V2.6c0-0.7,0.6-1.3,1.3-1.3c0.7,0,1.3,0.6,1.3,1.3v3.2H19.2z"/>
		<circle class="st6" cx="20.5" cy="8.3" r="0.6"/>
		<path class="st6" d="M14.2,27.9c-0.3-0.1-0.5-0.5-0.4-0.8l1.1-3.2l1.2,0.4L15,27.5C14.9,27.9,14.5,28,14.2,27.9
			C14.2,27.9,14.2,27.9,14.2,27.9z"/>
		<path class="st6" d="M26,27.5L25,24.3l1.2-0.4l1.1,3.2c0.1,0.3-0.1,0.7-0.4,0.8C26.5,28,26.1,27.9,26,27.5
			C26,27.5,26,27.5,26,27.5L26,27.5z"/>
		<path class="st5" d="M18,8.9l-3.8,15.2l0.6,1.9l1.9-1.3l3.2-13.3L18,8.9z"/>
		<path class="st5" d="M23,8.9l3.8,15.2L26.2,26l-1.9-1.3l-3.2-13.3L23,8.9z"/>
	</g>
	<g>
		<path class="st7" d="M39.5,17.4c-0.2-0.1-0.5,0-0.6,0.1L18.8,37.5c-0.2,0.2-0.2,0.4-0.1,0.6c0.1,0.2,0.3,0.4,0.5,0.4h19.9
			c0.3,0,0.6-0.3,0.6-0.6V18C39.8,17.7,39.7,17.5,39.5,17.4z M28.6,33.8l6.4-6.4v6.4H28.6z"/>
		<path class="st8" d="M39.5,17.4c-0.2-0.1-0.5,0-0.6,0.1l-1.6,1.6v19.4h1.9c0.3,0,0.6-0.3,0.6-0.6V18
			C39.8,17.7,39.7,17.5,39.5,17.4z"/>
		<g>
			<path class="st9" d="M39.8,24.5h-2.3c-0.3,0-0.6,0.3-0.6,0.6c0,0.3,0.3,0.6,0.6,0.6h2.3V24.5z"/>
			<path class="st9" d="M39.8,27.5h-2.3c-0.3,0-0.6,0.3-0.6,0.6s0.3,0.6,0.6,0.6h2.3V27.5z"/>
			<path class="st9" d="M39.8,30.5h-2.3c-0.3,0-0.6,0.3-0.6,0.6c0,0.3,0.3,0.6,0.6,0.6h2.3V30.5z"/>
			<path class="st9" d="M39.8,33.3h-2.3c-0.3,0-0.6,0.3-0.6,0.6c0,0.3,0.3,0.6,0.6,0.6h2.3V33.3z"/>
		</g>
	</g>
</g>
</svg>
