<?xml version="1.0" encoding="utf-8"?>
<!-- Generator: Adobe Illustrator 23.0.1, SVG Export Plug-In . SVG Version: 6.00 Build 0)  -->
<svg version="1.1" id="Layer_1" xmlns="http://www.w3.org/2000/svg" xmlns:xlink="http://www.w3.org/1999/xlink" x="0px" y="0px"
	 width="40px" height="40px" viewBox="0 0 40 40" style="enable-background:new 0 0 40 40;" xml:space="preserve">
<style type="text/css">
	.st0{fill:#7E9CD0;}
	.st1{fill:#AEAEAF;}
	.st2{fill:#90908F;}
	.st3{fill:#A4C8EA;}
	.st4{fill:#3292CF;}
	.st5{fill:#257DC0;}
	.st6{fill:#D7D7D7;}
	.st7{fill:#808080;}
	.st8{fill:#0093B8;}
	.st9{fill:#0B83A8;}
	.st10{fill:#097A97;}
	.st11{fill:#F8BC1E;}
	.st12{fill:#FFFFFF;}
	.st13{fill:#C9C9C8;}
</style>
<g>
	<path class="st0" d="M5.4,4.7v11c0,0.4,0.3,0.7,0.7,0.7c0.4,0,0.7-0.3,0.7-0.7v-11C6.7,4.3,6.4,4,6.1,4C5.7,4,5.4,4.3,5.4,4.7z"/>
	<path class="st1" d="M28.3,0.2c-0.4,0-0.7,0.3-0.7,0.7v35.2c0,0.4,0.3,0.7,0.7,0.7H33c0.4,0,0.7-0.3,0.7-0.7V5.6c0-2.2-1.2-4-3-4.9
		C29.9,0.3,29.1,0.2,28.3,0.2L28.3,0.2z"/>
	<path class="st2" d="M28.3,0.2c-0.4,0-0.7,0.3-0.7,0.7v35.2c0,0.4,0.3,0.7,0.7,0.7h2.3v-36C29.9,0.3,29.1,0.2,28.3,0.2L28.3,0.2z"
		/>
	<path class="st3" d="M3.7,17.1c0,1.1,1,2.1,2,2.1h0.7c0.4,0,0.7-0.3,0.7-0.7s-0.3-0.7-0.7-0.7H5.8c-0.4,0-0.7-0.4-0.7-0.8
		s0.4-0.8,0.7-0.8h0.7c0.4,0,0.7-0.3,0.7-0.7c0-0.4-0.3-0.7-0.7-0.7H5.8C4.6,15,3.7,16,3.7,17.1z"/>
	<path class="st4" d="M25.3,38.6c0.1,0.2,0.3,0.3,0.5,0.3h9.4c0.2,0,0.4-0.1,0.5-0.3c0.1-0.2,0.1-0.4,0.1-0.6L35,35
		c-0.1-0.3-0.4-0.5-0.7-0.5h-7.6c-0.3,0-0.5,0.2-0.7,0.5l-0.9,2.9C25.2,38.2,25.2,38.4,25.3,38.6z"/>
	<path class="st5" d="M25.3,38.6c0.1,0.2,0.3,0.3,0.5,0.3h4.7v-4.2h-3.8c-0.3,0-0.5,0.2-0.7,0.5L25.2,38
		C25.2,38.2,25.2,38.4,25.3,38.6z"/>
	<path class="st6" d="M2.9,5.4c0,1.2,1,2.2,2.1,2.2h27.5c1.2,0,2.1-1,2.1-2.2s-1-2.2-2.1-2.2H5C3.8,3.3,2.9,4.2,2.9,5.4z"/>
	<path class="st1" d="M2.9,5.4c0,1.2,1,2.2,2.1,2.2h19.9V3.3H5C3.8,3.3,2.9,4.2,2.9,5.4z"/>
</g>
<g id="Flat">
	<g>
		<path class="st7" d="M23.4,23.9h-1.1v-9.8h1.1V23.9z"/>
		<path class="st7" d="M11.1,27.3H10v-9.8h1.1V27.3z"/>
		<path class="st7" d="M8.3,27.3H7.2V21h1.1V27.3z"/>
		<path class="st7" d="M12.2,23.3H6.1v-1.2h6.1V23.3z"/>
		<path class="st7" d="M12.2,19.8H8.9v-1.2h3.3V19.8z"/>
		<path class="st7" d="M24.5,16.4h-3.3v-1.2h3.3V16.4z"/>
		<path class="st7" d="M20,23.9h-1.1v-7.5H20V23.9z"/>
		<path class="st7" d="M17.8,23.9h-1.1v-8.6h1.1V23.9z"/>
		<path class="st7" d="M15.6,23.9h-1.1v-4h1.1V23.9z"/>
		<path class="st7" d="M21.1,18.7h-5.6v-1.2h5.6V18.7z"/>
		<path class="st7" d="M24.5,21h-3.3v-1.2h3.3V21z"/>
		<path class="st7" d="M17.8,14.1h-1.1v-1.2h1.1V14.1z"/>
		<path class="st7" d="M11.1,16.4H10v-1.2h1.1V16.4z"/>
	</g>
	<path class="st8" d="M12.8,25.2l1.1-0.2h1.7v14.4H6.1V26.2L12.8,25.2z"/>
	<path class="st9" d="M13.9,25h1.7v14.4h-2.8V25.2L13.9,25z"/>
	<path class="st10" d="M11.7,29h-1.1v-1.2h1.1V29z"/>
	<path class="st11" d="M11.7,31.3h-1.1v-1.2h1.1V31.3z"/>
	<path class="st10" d="M11.7,33.6h-1.1v-1.2h1.1V33.6z"/>
	<path class="st11" d="M11.7,35.9h-1.1v-1.2h1.1V35.9z"/>
	<path class="st11" d="M9.4,29H8.3v-1.2h1.1V29z"/>
	<path class="st10" d="M9.4,31.3H8.3v-1.2h1.1V31.3z"/>
	<path class="st11" d="M9.4,33.6H8.3v-1.2h1.1V33.6z"/>
	<path class="st10" d="M9.4,35.9H8.3v-1.2h1.1V35.9z"/>
	<path class="st8" d="M23.9,39.4h-10V22.7h10V39.4z"/>
	<path class="st12" d="M37.9,40H4.4v-1.2h33.5V40z"/>
	<path class="st10" d="M21.7,26.7h-1.1v-1.2h1.1V26.7z"/>
	<path class="st11" d="M21.7,29h-1.1v-1.2h1.1V29z"/>
	<path class="st10" d="M21.7,31.3h-1.1v-1.2h1.1V31.3z"/>
	<path class="st10" d="M21.7,33.6h-1.1v-1.2h1.1V33.6z"/>
	<path class="st11" d="M21.7,35.9h-1.1v-1.2h1.1V35.9z"/>
	<path class="st10" d="M19.5,26.7h-1.1v-1.2h1.1V26.7z"/>
	<path class="st10" d="M19.5,29h-1.1v-1.2h1.1V29z"/>
	<path class="st11" d="M19.5,31.3h-1.1v-1.2h1.1V31.3z"/>
	<path class="st10" d="M19.5,33.6h-1.1v-1.2h1.1V33.6z"/>
	<path class="st10" d="M19.5,35.9h-1.1v-1.2h1.1V35.9z"/>
	<path class="st11" d="M17.2,26.7h-1.1v-1.2h1.1V26.7z"/>
	<path class="st10" d="M17.2,29h-1.1v-1.2h1.1V29z"/>
	<path class="st10" d="M17.2,31.3h-1.1v-1.2h1.1V31.3z"/>
	<path class="st11" d="M17.2,33.6h-1.1v-1.2h1.1V33.6z"/>
	<path class="st10" d="M17.2,35.9h-1.1v-1.2h1.1V35.9z"/>
	<path class="st13" d="M37.9,40H4.4v-1.2h33.5V40z"/>
</g>
</svg>
