<?xml version="1.0" encoding="utf-8"?>
<!-- Generator: Adobe Illustrator 23.0.1, SVG Export Plug-In . SVG Version: 6.00 Build 0)  -->
<svg version="1.1" id="Layer_1" xmlns="http://www.w3.org/2000/svg" xmlns:xlink="http://www.w3.org/1999/xlink" x="0px" y="0px"
	 width="40px" height="40px" viewBox="0 0 40 40" style="enable-background:new 0 0 40 40;" xml:space="preserve">
<style type="text/css">
	.st0{fill:#3E5168;}
	.st1{fill:#233952;}
	.st2{fill:#57697D;}
	.st3{fill:#4A80C1;}
	.st4{fill:#6A9DD3;}
	.st5{fill:#86C775;}
	.st6{fill:#FFFFFF;}
</style>
<g>
	<g>
		<path class="st0" d="M22.8,32.2L15,34.6l-0.3,0.9c-0.3,1.3-1.8,2.4-3.1,2.4v0.6h14.6v-0.6L22.8,32.2z"/>
		<path class="st1" d="M25.5,35.7l-0.9-3.4l-4.5-2.4l-4.5,2.4l-0.7,2.4h7.9l0.3,0.9c0.3,1.3,1.8,2.4,3.1,2.4l1.2,0.6l1.2-0.6
			C27.2,38.1,25.8,37,25.5,35.7z"/>
		<path class="st1" d="M32.5,39.3H7.7c-0.3,0-0.6-0.3-0.6-0.6s0.3-0.6,0.6-0.6h24.8c0.3,0,0.6,0.3,0.6,0.6
			C33.1,39,32.8,39.3,32.5,39.3z"/>
		<path class="st0" d="M37.4,1.5h-2.3v30.7h2.3c1.3,0,2.3-1,2.3-2.4V4.1C39.9,2.7,38.8,1.5,37.4,1.5z"/>
		<path class="st2" d="M35.1,1.5H2.6c-1.3,0-2.3,1-2.3,2.4v25.8c0,1.3,1,2.4,2.3,2.4h32.6c1.3,0,2.3-1,2.3-2.4v-2.4L20.1,15.6
			L37.4,3.9C37.4,2.7,36.4,1.5,35.1,1.5z"/>
		<path class="st3" d="M37.4,4.1h-2.3l-15,11.7l15,11.7h2.3C37.4,27.3,37.4,4.1,37.4,4.1z"/>
		<path class="st4" d="M35.1,4.1H2.6v23.4h32.6C35.1,27.3,35.1,4.1,35.1,4.1z"/>
		<ellipse class="st5" cx="37.6" cy="29.9" rx="0.6" ry="0.6"/>
		<ellipse class="st0" cx="35.1" cy="29.9" rx="0.6" ry="0.6"/>
	</g>
	<g>
		<path class="st6" d="M16.5,20h-0.8c-0.8,0-1.4,0.6-1.4,1.4v3.2c0,0.8,0.6,1.4,1.4,1.4h0.8c0.8,0,1.4-0.6,1.4-1.4v-3.2
			C17.9,20.7,17.3,20,16.5,20z M16.7,24.7c0,0.1-0.1,0.2-0.2,0.2h-0.8c-0.1,0-0.2-0.1-0.2-0.2v-3.2c0-0.1,0.1-0.2,0.2-0.2h0.8
			c0.1,0,0.2,0.1,0.2,0.2V24.7z"/>
		<path class="st6" d="M11.7,24.9h-0.6v-4.2c0-0.3-0.3-0.6-0.6-0.6H9.3c-0.3,0-0.6,0.3-0.6,0.6s0.3,0.6,0.6,0.6h0.6v3.6H9.3
			c-0.3,0-0.6,0.3-0.6,0.6s0.3,0.6,0.6,0.6h2.4c0.3,0,0.6-0.3,0.6-0.6S12,24.9,11.7,24.9z"/>
		<path class="st6" d="M27.7,20h-0.8c-0.8,0-1.4,0.6-1.4,1.4v3.2c0,0.8,0.6,1.4,1.4,1.4h0.8c0.8,0,1.4-0.6,1.4-1.4v-3.2
			C29.1,20.7,28.5,20,27.7,20z M27.9,24.7c0,0.1-0.1,0.2-0.2,0.2h-0.8c-0.1,0-0.2-0.1-0.2-0.2v-3.2c0-0.1,0.1-0.2,0.2-0.2h0.8
			c0.1,0,0.2,0.1,0.2,0.2V24.7z"/>
		<path class="st6" d="M22.9,24.9h-0.6v-4.2c0-0.3-0.3-0.6-0.6-0.6h-1.2c-0.3,0-0.6,0.3-0.6,0.6s0.3,0.6,0.6,0.6h0.6v3.6h-0.6
			c-0.3,0-0.6,0.3-0.6,0.6s0.3,0.6,0.6,0.6h2.4c0.3,0,0.6-0.3,0.6-0.6S23.3,24.9,22.9,24.9z"/>
		<path class="st6" d="M16.5,12.8h-0.8c-0.8,0-1.4,0.6-1.4,1.4v3.2c0,0.8,0.6,1.4,1.4,1.4h0.8c0.8,0,1.4-0.6,1.4-1.4v-3.2
			C17.9,13.4,17.3,12.8,16.5,12.8z M16.7,17.4c0,0.1-0.1,0.2-0.2,0.2h-0.8c-0.1,0-0.2-0.1-0.2-0.2v-3.2c0-0.1,0.1-0.2,0.2-0.2h0.8
			c0.1,0,0.2,0.1,0.2,0.2V17.4z"/>
		<path class="st6" d="M11.7,17.6h-0.6v-4.2c0-0.3-0.3-0.6-0.6-0.6H9.3c-0.3,0-0.6,0.3-0.6,0.6S8.9,14,9.3,14h0.6v3.6H9.3
			c-0.3,0-0.6,0.3-0.6,0.6s0.3,0.6,0.6,0.6h2.4c0.3,0,0.6-0.3,0.6-0.6S12,17.6,11.7,17.6z"/>
		<path class="st6" d="M22.1,12.8h-0.8c-0.8,0-1.4,0.6-1.4,1.4v3.2c0,0.8,0.6,1.4,1.4,1.4h0.8c0.8,0,1.4-0.6,1.4-1.4v-3.2
			C23.5,13.4,22.9,12.8,22.1,12.8z M22.3,17.4c0,0.1-0.1,0.2-0.2,0.2h-0.8c-0.1,0-0.2-0.1-0.2-0.2v-3.2c0-0.1,0.1-0.2,0.2-0.2h0.8
			c0.1,0,0.2,0.1,0.2,0.2V17.4z"/>
		<path class="st6" d="M28.5,17.6h-0.6v-4.2c0-0.3-0.3-0.6-0.6-0.6h-1.2c-0.3,0-0.6,0.3-0.6,0.6s0.3,0.6,0.6,0.6h0.6v3.6h-0.6
			c-0.3,0-0.6,0.3-0.6,0.6s0.3,0.6,0.6,0.6h2.4c0.3,0,0.6-0.3,0.6-0.6S28.9,17.6,28.5,17.6z"/>
		<path class="st6" d="M10.9,5.5h-0.8c-0.8,0-1.4,0.6-1.4,1.4v3.2c0,0.8,0.6,1.4,1.4,1.4h0.8c0.8,0,1.4-0.6,1.4-1.4V6.9
			C12.3,6.1,11.6,5.5,10.9,5.5z M11.1,10.1c0,0.1-0.1,0.2-0.2,0.2h-0.8c-0.1,0-0.2-0.1-0.2-0.2V6.9c0-0.1,0.1-0.2,0.2-0.2h0.8
			c0.1,0,0.2,0.1,0.2,0.2V10.1z"/>
		<path class="st6" d="M17.3,10.3h-0.6V6.1c0-0.3-0.3-0.6-0.6-0.6h-1.2c-0.3,0-0.6,0.3-0.6,0.6c0,0.3,0.3,0.6,0.6,0.6h0.6v3.6h-0.6
			c-0.3,0-0.6,0.3-0.6,0.6c0,0.3,0.3,0.6,0.6,0.6h2.4c0.3,0,0.6-0.3,0.6-0.6C17.9,10.6,17.6,10.3,17.3,10.3z"/>
		<path class="st6" d="M27.7,5.5h-0.8c-0.8,0-1.4,0.6-1.4,1.4v3.2c0,0.8,0.6,1.4,1.4,1.4h0.8c0.8,0,1.4-0.6,1.4-1.4V6.9
			C29.1,6.1,28.5,5.5,27.7,5.5z M27.9,10.1c0,0.1-0.1,0.2-0.2,0.2h-0.8c-0.1,0-0.2-0.1-0.2-0.2V6.9c0-0.1,0.1-0.2,0.2-0.2h0.8
			c0.1,0,0.2,0.1,0.2,0.2V10.1z"/>
		<path class="st6" d="M22.9,10.3h-0.6V6.1c0-0.3-0.3-0.6-0.6-0.6h-1.2c-0.3,0-0.6,0.3-0.6,0.6c0,0.3,0.3,0.6,0.6,0.6h0.6v3.6h-0.6
			c-0.3,0-0.6,0.3-0.6,0.6c0,0.3,0.3,0.6,0.6,0.6h2.4c0.3,0,0.6-0.3,0.6-0.6C23.5,10.6,23.3,10.3,22.9,10.3z"/>
	</g>
</g>
</svg>
