<?xml version="1.0" encoding="utf-8"?>
<!-- Generator: Adobe Illustrator 23.0.1, SVG Export Plug-In . SVG Version: 6.00 Build 0)  -->
<svg version="1.1" id="Layer_1" xmlns="http://www.w3.org/2000/svg" xmlns:xlink="http://www.w3.org/1999/xlink" x="0px" y="0px"
	 width="40px" height="40px" viewBox="0 0 40 40" style="enable-background:new 0 0 40 40;" xml:space="preserve">
<style type="text/css">
	.st0{fill:#CAC2B5;}
	.st1{fill:#243242;}
	.st2{fill:#8791A0;}
	.st3{fill:#75808F;}
	.st4{fill:#C8E0F4;}
	.st5{fill:#EAF6FD;}
	.st6{fill:#1E233C;}
	.st7{fill:#E6F5FB;}
	.st8{fill:#C0272D;}
	.st9{fill:#F6D780;}
	.st10{fill:#96CB7F;}
</style>
<g>
	<g>
		<path class="st0" d="M231.3,609.3h7.2c0.8,0,1.4-0.7,1.4-1.4v-10.1h2.9v10.9c0,2-1.7,3.7-3.7,3.7h-8v-3H231.3z"/>
		<g>
			<path class="st1" d="M240,600.6h2.9v1.4H240V600.6z"/>
		</g>
		<path class="st2" d="M229.1,615.1h-21.6c-1.6,0-2.9-1.3-2.9-2.9v-37.5c0-1.6,1.3-2.9,2.9-2.9h21.6c1.6,0,2.9,1.3,2.9,2.9v37.6
			C232,613.9,230.8,615.1,229.1,615.1z"/>
		<path class="st3" d="M234.9,580.5h13v14.4h-13V580.5z"/>
		<path class="st4" d="M237.8,583.3h7.2v5.8h-7.2V583.3z"/>
		<path class="st1" d="M238.6,594.9v3.7h5.8v-3.7"/>
		<g>
			<path class="st5" d="M237.8,589.1h2.1c1.8-1.3,2.9-3.4,2.9-5.8h-5.1v5.8H237.8z"/>
		</g>
	</g>
	<path class="st6" d="M228.7,595.2h-20.8c-0.3,0-0.5-0.2-0.5-0.5v-18.8c0-0.3,0.2-0.5,0.5-0.5h20.8c0.3,0,0.5,0.2,0.5,0.5v18.8
		C229.2,595,229,595.2,228.7,595.2z"/>
	<path class="st7" d="M227.2,577.9v14.9c0,0.3-0.2,0.5-0.5,0.5h-16.9c-0.3,0-0.5-0.2-0.5-0.5v-14.9c0-0.3,0.2-0.5,0.5-0.5h16.9
		C227,577.4,227.2,577.6,227.2,577.9z"/>
	<g>
		<path class="st8" d="M209.7,599.5h3.4v3.4h-3.4V599.5z"/>
	</g>
	<g>
		<path class="st9" d="M216.6,599.5h3.4v3.4h-3.4V599.5z"/>
	</g>
	<g>
		<path class="st10" d="M223.5,599.5h3.4v3.4h-3.4V599.5z"/>
	</g>
</g>
<g>
	<g>
		<path class="st0" d="M24.8,34.5h6.4c0.7,0,1.3-0.6,1.3-1.3v-8.9H35v9.6c0,1.8-1.5,3.2-3.2,3.2h-7.1L24.8,34.5L24.8,34.5z"/>
		<g>
			<path class="st1" d="M32.4,26.8H35v1.3h-2.6V26.8z"/>
		</g>
		<path class="st2" d="M22.8,39.6H3.7c-1.4,0-2.6-1.2-2.6-2.6V3.8c0-1.4,1.2-2.6,2.6-2.6h19.1c1.4,0,2.6,1.2,2.6,2.6v33.3
			C25.3,38.5,24.3,39.6,22.8,39.6z"/>
		<path class="st3" d="M27.9,9h11.5v12.8H27.9V9z"/>
		<path class="st4" d="M30.4,11.5h6.4v5.1h-6.4V11.5z"/>
		<path class="st1" d="M31.1,21.7V25h5.1v-3.2"/>
		<g>
			<path class="st5" d="M30.4,16.6h1.9c1.6-1.2,2.6-3,2.6-5.1h-4.5L30.4,16.6L30.4,16.6z"/>
		</g>
	</g>
	<path class="st6" d="M22.4,22H4c-0.3,0-0.4-0.1-0.4-0.4V4.9c0-0.3,0.1-0.4,0.4-0.4h18.4c0.3,0,0.4,0.1,0.4,0.4v16.7
		C22.8,21.9,22.7,22,22.4,22z"/>
	<path class="st7" d="M21.1,6.7v13.2c0,0.3-0.1,0.4-0.4,0.4H5.8c-0.3,0-0.4-0.1-0.4-0.4V6.7c0-0.3,0.1-0.4,0.4-0.4h14.9
		C20.9,6.3,21.1,6.4,21.1,6.7z"/>
	<g>
		<path class="st8" d="M5.6,25.8h3v3h-3V25.8z"/>
	</g>
	<g>
		<path class="st9" d="M11.7,25.8h3v3h-3V25.8z"/>
	</g>
	<g>
		<path class="st10" d="M17.8,25.8h3v3h-3V25.8z"/>
	</g>
</g>
</svg>
