<?xml version="1.0" encoding="utf-8"?>
<!-- Generator: Adobe Illustrator 23.0.1, SVG Export Plug-In . SVG Version: 6.00 Build 0)  -->
<svg version="1.1" id="Layer_1" xmlns="http://www.w3.org/2000/svg" xmlns:xlink="http://www.w3.org/1999/xlink" x="0px" y="0px"
	 width="40px" height="40px" viewBox="0 0 40 40" style="enable-background:new 0 0 40 40;" xml:space="preserve">
<style type="text/css">
	.st0{fill:#767C80;}
	.st1{fill:#DADCDD;}
	.st2{fill:#98A1A6;}
	.st3{fill:#F9BD13;}
	.st4{fill:#FFFFFF;}
	.st5{fill:#344A5E;}
	.st6{fill:#425B6B;}
	.st7{fill:#FFD05C;}
</style>
<g>
	<path class="st0" d="M5.9,13.5c-0.3,0-0.6-0.3-0.6-0.6V9.5C5.4,9.2,5.6,9,5.9,9s0.6,0.3,0.6,0.6v3.4C6.5,13.2,6.2,13.5,5.9,13.5z"
		/>
	<path class="st0" d="M2.5,24.3C2.2,24.3,2,24,2,23.7v-3.4c0-0.3,0.3-0.6,0.6-0.6s0.6,0.3,0.6,0.6v3.4C3.1,24,2.8,24.3,2.5,24.3z"/>
	<path class="st0" d="M7.1,24.3c-0.3,0-0.6-0.3-0.6-0.6v-3.4c0-0.3,0.3-0.6,0.6-0.6s0.6,0.3,0.6,0.6v3.4C7.6,24,7.4,24.3,7.1,24.3z"
		/>
	<path class="st0" d="M26.4,24.3c-0.3,0-0.6-0.3-0.6-0.6v-3.4c0-0.3,0.3-0.6,0.6-0.6c0.3,0,0.6,0.3,0.6,0.6v3.4
		C26.9,24,26.7,24.3,26.4,24.3z"/>
	<path class="st0" d="M21.8,24.3c-0.3,0-0.6-0.3-0.6-0.6v-3.4c0-0.3,0.3-0.6,0.6-0.6c0.3,0,0.6,0.3,0.6,0.6v3.4
		C22.4,24,22.1,24.3,21.8,24.3z"/>
	<path class="st0" d="M23,13.5c-0.3,0-0.6-0.3-0.6-0.6V9.5C22.4,9.2,22.6,9,23,9c0.3,0,0.6,0.3,0.6,0.6v3.4
		C23.5,13.2,23.3,13.5,23,13.5z"/>
	<g>
		<path class="st1" d="M16.4,9.5h-3.9L12.7,5h3.4L16.4,9.5z"/>
		<path class="st1" d="M14.4,12.2l-2.3,3.6l0,0l0.3-6.3h0.3L14.4,12.2z"/>
		<path class="st1" d="M16.7,15.8L16.7,15.8l-2.3-3.6l1.7-2.7h0.3L16.7,15.8z"/>
		<path class="st1" d="M16.7,15.8h-4.5l2.3-3.6L16.7,15.8z"/>
		<path class="st1" d="M17.3,25.4l-2.8-2.8l2.3-2.3H17L17.3,25.4z"/>
		<path class="st1" d="M14.4,29l-3.3,4.2l0.4-7.8L14.4,29z"/>
		<path class="st1" d="M17.8,35.6l-3.4-2.3L11,35.6l0.1-2.4l3.3-4.2l3.3,4.2L17.8,35.6z"/>
		<path class="st1" d="M17.7,33.2L14.4,29l2.8-3.6L17.7,33.2z"/>
		<path class="st1" d="M16.1,5h-3.4l1.7-2.3L16.1,5z"/>
		<path class="st1" d="M12.2,9.5H4.2L9,7L12.2,9.5z"/>
		<path class="st1" d="M12.7,5l-0.3,4.5h-0.3L9,7L12.7,5z"/>
		<path class="st1" d="M19.9,7l-3.3,2.6h-0.2L16.1,5L19.9,7z"/>
		<path class="st1" d="M24.7,9.5h-8L19.9,7L24.7,9.5z"/>
		<path class="st1" d="M17,20.3h-5.1l0.3-4.5l0,0h4.5l0,0L17,20.3z"/>
		<path class="st1" d="M12.1,15.8l-0.3,4.5h-0.3L8,17.4L12.1,15.8z"/>
		<path class="st1" d="M11.6,20.3H0.8L8,17.4L11.6,20.3z"/>
		<path class="st1" d="M28.1,20.3H17.3l3.6-2.9L28.1,20.3z"/>
		<path class="st1" d="M20.9,17.4l-3.6,2.9H17l-0.3-4.5L20.9,17.4z"/>
		<path class="st1" d="M16.1,9.5l-1.7,2.7l-1.7-2.7H16.1z"/>
		<path class="st1" d="M14.4,22.6l-2.8,2.8l0.3-5.1h0.3L14.4,22.6z"/>
		<path class="st1" d="M16.7,20.3l-2.3,2.3l-2.3-2.3H16.7z"/>
		<path class="st1" d="M17.3,25.4L14.4,29l-2.8-3.6l2.8-2.8L17.3,25.4z"/>
	</g>
	<path class="st2" d="M28.3,19.8l-7.2-2.9l-3.8-1.5L17,10.1h7.7c0.3,0,0.6-0.3,0.6-0.6c0-0.2-0.1-0.4-0.3-0.5l-4.8-2.6l-3.6-1.9
		l-1.6-2.2c-0.2-0.3-0.5-0.3-0.8-0.1c0,0-0.1,0.1-0.1,0.1l-1.6,2.2L8.8,6.5L4,9C3.7,9.2,3.6,9.5,3.7,9.8C3.8,10,4,10.1,4.2,10.1h7.7
		l-0.3,5.3l-3.8,1.5l-7.2,2.9c-0.3,0.1-0.4,0.4-0.3,0.7c0.1,0.2,0.3,0.4,0.5,0.4h10.5L11,25.4v0l-0.4,7.8l-0.1,2.4
		c0,0.3,0.2,0.6,0.5,0.6c0.1,0,0.2,0,0.3-0.1l3.1-2.1l3.1,2.1c0.3,0.2,0.6,0.1,0.8-0.2c0.1-0.1,0.1-0.2,0.1-0.3l-0.1-2.4l-0.4-7.8v0
		l-0.3-4.5h10.5c0.3,0,0.6-0.3,0.6-0.6C28.6,20.1,28.5,19.9,28.3,19.8L28.3,19.8z M15.9,11l0.2,2.7l-0.9-1.5l0.2-0.3L15.9,11z
		 M14.4,11.1l-0.7-1.1h1.3L14.4,11.1z M14.4,13.3l1,1.6l0.2,0.4h-2.5l0.2-0.4L14.4,13.3z M16.4,19.7h-3.9l0.2-3.4h3.5L16.4,19.7z
		 M15.3,20.9l-0.9,0.9l-0.9-0.9H15.3z M14.4,23.4l2.1,2.1l-2.1,2.6l-2.1-2.6L14.4,23.4z M15.6,5.6l0.2,3l0,0.4h-2.7l0.2-3.4H15.6z
		 M13,11l0.8,1.2l-0.9,1.5L13,11z M12.4,21.3l1.2,1.2L12.3,24L12.4,21.3z M12.1,26.9l1.6,2.1l-1.9,2.4L12.1,26.9z M15.2,29l1.6-2.1
		l0.2,4.5L15.2,29z M15.2,22.6l1.2-1.2l0.1,2.6L15.2,22.6z M19.8,17.6l-2.2,1.8l-0.2-2.8L19.8,17.6z M18.3,9l1-0.8l0.7-0.6L22.4,9
		H18.3z M18.8,7.1l-1.9,1.5L16.8,6L18.8,7.1z M14.4,3.7L15,4.4h-1.1L14.4,3.7z M12,8.6l-1.1-0.9L10,7.1L12.1,6L12,8.6z M6.5,9L9,7.6
		L10.6,9H6.5z M11.5,16.6l-0.2,2.8l-2.2-1.8L11.5,16.6z M3.8,19.7l4.1-1.7l2.1,1.7H3.8z M14.8,32.9c-0.2-0.1-0.4-0.1-0.6,0l-2.5,1.6
		l0.1-1.1l2.6-3.3l0.1-0.1l0.1,0.1l2.6,3.3l0.1,1.1L14.8,32.9z M18.9,19.7l2.1-1.7l4.1,1.7H18.9z"/>
	<path class="st3" d="M31.2,32.6c0.3-1.1,1-2.1,1.9-2.9c1.7-1.4,2.8-3.6,2.8-5.9c0-4.4-3.7-8-8.2-7.8c-4,0.2-7.3,3.6-7.4,7.6
		c-0.1,2.5,1,4.7,2.8,6.2c1,0.8,1.6,1.8,2,2.9H31.2L31.2,32.6z"/>
	<path class="st4" d="M27.3,32.7h0.5l-2.3-8.4c0.1,0,0.1,0,0.2,0c0.3,0,0.6-0.1,0.8-0.3c0.1-0.1,0.2-0.2,0.4-0.2
		c0.2,0,0.3,0.1,0.4,0.2c0.4,0.5,1.1,0.5,1.5,0c0.1-0.1,0.2-0.2,0.4-0.2c0.1,0,0.3,0.1,0.4,0.2c0.2,0.2,0.5,0.3,0.8,0.3
		c0.1,0,0.1,0,0.2,0l-2.2,8.4h0.5l2.3-8.8c0-0.1,0-0.2-0.1-0.3c-0.1-0.1-0.2,0-0.3,0.1c-0.1,0.1-0.2,0.2-0.3,0.2
		c-0.2,0-0.3-0.1-0.5-0.2c-0.2-0.2-0.5-0.3-0.7-0.3c-0.3,0-0.5,0.1-0.7,0.3c-0.2,0.2-0.6,0.2-0.8,0c-0.2-0.2-0.5-0.3-0.7-0.3l0,0
		c-0.3,0-0.6,0.1-0.7,0.3c-0.1,0.1-0.3,0.2-0.5,0.2c-0.1,0-0.3-0.1-0.3-0.2c-0.1-0.1-0.2-0.1-0.3-0.1c-0.1,0.1-0.2,0.2-0.1,0.3
		L27.3,32.7z"/>
	<g>
		<path class="st5" d="M26.3,37.8c0.3,0.7,1,1.2,1.8,1.2s1.5-0.5,1.8-1.2H26.3z"/>
		<path class="st5" d="M30.1,37.8H26c-0.6,0-1-0.5-1-1v-4.3h6.2v4.3C31.2,37.4,30.7,37.8,30.1,37.8z"/>
	</g>
	<g>
		<path class="st6" d="M31.1,34.7H25c-0.3,0-0.6-0.3-0.6-0.6l0,0c0-0.3,0.3-0.6,0.6-0.6h6.1c0.3,0,0.6,0.3,0.6,0.6l0,0
			C31.7,34.4,31.4,34.7,31.1,34.7z"/>
		<path class="st6" d="M31.1,36.7H25c-0.3,0-0.6-0.3-0.6-0.6l0,0c0-0.3,0.3-0.6,0.6-0.6h6.1c0.3,0,0.6,0.3,0.6,0.6l0,0
			C31.7,36.4,31.4,36.7,31.1,36.7z"/>
	</g>
	<g>
		<path class="st7" d="M28.1,11.9c-0.3,0-0.6,0.2-0.6,0.6v1.9c0,0.3,0.2,0.6,0.6,0.6s0.6-0.2,0.6-0.6v-1.9
			C28.6,12.1,28.3,11.9,28.1,11.9z"/>
		<path class="st7" d="M20.5,15.3c-0.2-0.2-0.6-0.2-0.8,0c-0.2,0.2-0.2,0.6,0,0.8l1.4,1.4c0.2,0.2,0.6,0.2,0.8,0
			c0.2-0.2,0.2-0.6,0-0.8L20.5,15.3z"/>
		<path class="st7" d="M18.7,23.1h-1.9c-0.3,0-0.6,0.2-0.6,0.6l0,0c0,0.3,0.2,0.6,0.6,0.6h1.9c0.3,0,0.6-0.2,0.6-0.6l0,0
			C19.3,23.4,19,23.1,18.7,23.1z"/>
		<path class="st7" d="M21.1,29.9l-1.4,1.4c-0.2,0.2-0.2,0.6,0,0.8c0.2,0.2,0.6,0.2,0.8,0l1.4-1.4c0.2-0.2,0.2-0.6,0-0.8
			C21.6,29.6,21.3,29.6,21.1,29.9z"/>
		<path class="st7" d="M35.1,29.9c-0.2-0.2-0.6-0.2-0.8,0c-0.2,0.2-0.2,0.6,0,0.8l1.4,1.4c0.2,0.2,0.6,0.2,0.8,0
			c0.2-0.2,0.2-0.6,0-0.8L35.1,29.9z"/>
		<path class="st7" d="M39.3,23.1h-1.9c-0.3,0-0.6,0.2-0.6,0.6l0,0c0,0.3,0.2,0.6,0.6,0.6h1.9c0.3,0,0.6-0.2,0.6-0.6l0,0
			C39.9,23.4,39.6,23.1,39.3,23.1z"/>
		<path class="st7" d="M35.6,15.3l-1.4,1.4c-0.2,0.2-0.2,0.6,0,0.8c0.2,0.2,0.6,0.2,0.8,0l1.4-1.4c0.2-0.2,0.2-0.6,0-0.8
			S35.9,15.1,35.6,15.3z"/>
	</g>
</g>
</svg>
