<?xml version="1.0" encoding="UTF-8"?>
<svg xmlns="http://www.w3.org/2000/svg" xmlns:xlink="http://www.w3.org/1999/xlink" width="44px" height="48px" viewBox="0 0 44 48" version="1.1">
<g id="surface1">
<path style=" stroke:none;fill-rule:nonzero;fill:rgb(0.784314%,59.215686%,59.607843%);fill-opacity:1;" d="M 29.882812 36.132812 C 29.613281 35.984375 29.320312 35.984375 29.027344 35.984375 L 24.183594 35.996094 C 23.996094 36.25 23.726562 36.296875 23.433594 36.304688 C 22.460938 36.324219 21.488281 36.304688 20.515625 36.316406 C 20.214844 36.335938 19.917969 36.21875 19.710938 36 L 15.601562 35.988281 C 15.328125 35.988281 15.054688 35.996094 14.804688 36.144531 C 14.488281 36.257812 14.15625 36.316406 13.816406 36.3125 C 12.535156 36.3125 11.253906 36.3125 9.972656 36.308594 C 9.777344 36.308594 9.53125 36.40625 9.433594 36.121094 C 9.140625 35.957031 8.816406 35.996094 8.5 35.988281 C 6.746094 35.988281 4.988281 35.988281 3.230469 35.988281 C 1.089844 35.976562 0.0117188 34.914062 0.0117188 32.816406 C 0.0117188 24.445312 0.0117188 16.078125 0.0117188 7.707031 C 0.0117188 5.652344 1.109375 4.566406 3.191406 4.566406 C 8.695312 4.566406 14.199219 4.566406 19.703125 4.566406 C 19.90625 4.351562 20.195312 4.234375 20.496094 4.25 C 21.476562 4.269531 22.460938 4.246094 23.441406 4.261719 C 23.734375 4.261719 23.996094 4.324219 24.183594 4.570312 L 40.632812 4.570312 C 42.847656 4.570312 43.976562 5.652344 43.980469 7.851562 C 43.992188 16.113281 43.992188 24.375 43.980469 32.636719 C 43.980469 34.921875 42.882812 35.984375 40.578125 35.996094 C 38.800781 36.003906 37.019531 36.003906 35.246094 36.007812 C 35.140625 36.261719 34.910156 36.304688 34.671875 36.3125 C 33.28125 36.335938 31.890625 36.320312 30.5 36.320312 C 30.285156 36.304688 30.109375 36.113281 29.882812 36.132812 Z M 29.882812 36.132812 "/>
<path style=" stroke:none;fill-rule:nonzero;fill:rgb(42.745098%,42.745098%,42.745098%);fill-opacity:1;" d="M 19.714844 35.996094 L 24.183594 35.996094 C 24.183594 39.214844 24.183594 42.4375 24.171875 45.652344 C 24.167969 47.042969 23.3125 47.964844 22.046875 48.003906 C 20.707031 48.042969 19.734375 47.105469 19.726562 45.71875 C 19.710938 42.859375 19.726562 39.996094 19.71875 37.132812 C 19.722656 36.753906 19.714844 36.375 19.714844 35.996094 Z M 19.714844 35.996094 "/>
<path style=" stroke:none;fill-rule:nonzero;fill:rgb(42.745098%,42.745098%,42.745098%);fill-opacity:1;" d="M 29.882812 36.132812 C 30.285156 35.957031 30.710938 35.996094 31.132812 35.992188 C 32.503906 35.992188 33.875 35.992188 35.246094 35.992188 C 36.363281 37.578125 37.480469 39.160156 38.59375 40.746094 C 38.851562 41.109375 39.09375 41.476562 39.171875 41.925781 C 39.351562 42.984375 38.890625 43.910156 37.964844 44.324219 C 37.035156 44.785156 35.90625 44.519531 35.28125 43.695312 C 34.566406 42.78125 33.914062 41.820312 33.246094 40.875 C 32.121094 39.296875 31 37.71875 29.882812 36.132812 Z M 29.882812 36.132812 "/>
<path style=" stroke:none;fill-rule:nonzero;fill:rgb(42.745098%,42.745098%,42.745098%);fill-opacity:1;" d="M 9.433594 36.125 C 11.226562 35.933594 13.019531 35.886719 14.808594 36.144531 C 13.042969 38.636719 11.289062 41.140625 9.496094 43.617188 C 9.160156 44.097656 8.640625 44.425781 8.058594 44.527344 C 7.472656 44.625 6.875 44.484375 6.394531 44.140625 C 5.402344 43.429688 5.164062 42.132812 5.90625 41.058594 C 7.054688 39.390625 8.257812 37.765625 9.433594 36.125 Z M 9.433594 36.125 "/>
<path style=" stroke:none;fill-rule:nonzero;fill:rgb(42.745098%,42.745098%,42.745098%);fill-opacity:1;" d="M 24.191406 4.550781 L 19.710938 4.550781 C 19.710938 3.773438 19.710938 2.996094 19.730469 2.222656 C 19.761719 0.925781 20.671875 0.0117188 21.914062 -0.00390625 C 23.183594 -0.015625 24.132812 0.910156 24.171875 2.222656 C 24.199219 3.003906 24.183594 3.78125 24.191406 4.550781 Z M 24.191406 4.550781 "/>
<path style=" stroke:none;fill-rule:nonzero;fill:rgb(100%,100%,100%);fill-opacity:1;" d="M 22.007812 7.554688 C 27.957031 7.554688 33.90625 7.554688 39.855469 7.554688 C 40.917969 7.554688 40.917969 7.554688 40.921875 8.597656 L 40.921875 31.753906 C 40.921875 31.878906 40.910156 32.003906 40.921875 32.132812 C 40.960938 32.660156 40.746094 32.898438 40.1875 32.878906 C 39.253906 32.851562 38.324219 32.878906 37.390625 32.878906 L 4.109375 32.878906 C 3.058594 32.878906 3.050781 32.878906 3.050781 31.832031 C 3.050781 24.050781 3.050781 16.269531 3.050781 8.488281 C 3.050781 7.578125 3.070312 7.558594 4.035156 7.558594 Z M 22.007812 7.554688 "/>
<path style=" stroke:none;fill-rule:nonzero;fill:rgb(98.823529%,83.529412%,38.431373%);fill-opacity:1;" d="M 18.375 19.515625 C 18.375 18.125 18.386719 16.738281 18.375 15.355469 C 18.363281 14.824219 18.550781 14.597656 19.109375 14.617188 C 20.355469 14.648438 21.605469 14.625 22.851562 14.652344 C 23.554688 14.65625 24.242188 14.882812 24.808594 15.296875 C 26.046875 16.195312 26.082031 18.140625 24.863281 19.046875 C 24.527344 19.296875 24.527344 19.394531 24.90625 19.566406 C 25.933594 20.027344 26.386719 20.859375 26.308594 21.949219 C 26.226562 23.097656 25.570312 23.832031 24.480469 24.199219 C 23.933594 24.371094 23.367188 24.457031 22.792969 24.453125 C 21.546875 24.472656 20.296875 24.453125 19.050781 24.472656 C 18.558594 24.480469 18.363281 24.285156 18.375 23.800781 C 18.394531 23.085938 18.375 22.371094 18.375 21.652344 L 18.375 19.507812 Z M 18.375 19.515625 "/>
<path style=" stroke:none;fill-rule:nonzero;fill:rgb(12.156863%,69.019608%,89.019608%);fill-opacity:1;" d="M 11.789062 14.636719 C 12.363281 14.519531 12.714844 14.828125 12.980469 15.449219 C 14.140625 18.136719 15.351562 20.800781 16.523438 23.480469 C 16.652344 23.765625 17.058594 24.097656 16.632812 24.417969 C 16.273438 24.691406 15.222656 24.449219 15.027344 24.082031 C 14.800781 23.65625 14.601562 23.214844 14.410156 22.769531 C 14.25 22.390625 13.988281 22.230469 13.574219 22.234375 C 12.324219 22.246094 11.078125 22.246094 9.828125 22.234375 C 9.414062 22.234375 9.144531 22.386719 8.988281 22.765625 C 8.871094 23.058594 8.699219 23.332031 8.609375 23.632812 C 8.390625 24.34375 7.90625 24.558594 7.210938 24.488281 C 6.585938 24.425781 6.5 24.335938 6.761719 23.738281 C 7.445312 22.175781 8.140625 20.621094 8.832031 19.066406 C 9.371094 17.855469 9.914062 16.644531 10.457031 15.433594 C 10.792969 14.65625 10.816406 14.636719 11.789062 14.636719 Z M 11.789062 14.636719 "/>
<path style=" stroke:none;fill-rule:nonzero;fill:rgb(93.333333%,29.803922%,26.666667%);fill-opacity:1;" d="M 33.09375 14.375 C 34.3125 14.34375 35.5 14.765625 36.425781 15.558594 C 36.816406 15.878906 36.988281 16.175781 36.507812 16.550781 C 36.425781 16.617188 36.351562 16.695312 36.296875 16.785156 C 36.042969 17.164062 35.785156 17.179688 35.429688 16.863281 C 34.5 16.054688 33.386719 15.875 32.210938 16.117188 C 30.796875 16.410156 29.84375 17.253906 29.566406 18.683594 C 29.277344 20.167969 29.710938 21.464844 30.980469 22.347656 C 32.175781 23.1875 33.464844 23.199219 34.753906 22.511719 C 34.867188 22.453125 34.972656 22.382812 35.074219 22.308594 C 35.71875 21.851562 36.269531 22.003906 36.621094 22.726562 C 36.785156 23.066406 36.484375 23.183594 36.316406 23.332031 C 34.417969 25.050781 31.265625 25.019531 29.351562 23.265625 C 27.8125 21.859375 27.316406 19.539062 28.117188 17.519531 C 28.902344 15.566406 30.792969 14.371094 33.09375 14.375 Z M 33.09375 14.375 "/>
<path style=" stroke:none;fill-rule:nonzero;fill:rgb(100%,100%,100%);fill-opacity:1;" d="M 21.859375 22.972656 C 19.796875 22.929688 20.101562 23.1875 20.078125 21.175781 C 20.070312 20.28125 20.109375 20.253906 20.992188 20.234375 C 21.757812 20.21875 22.519531 20.199219 23.269531 20.328125 C 24.175781 20.480469 24.582031 20.894531 24.5625 21.664062 C 24.542969 22.429688 24.152344 22.792969 23.246094 22.894531 C 22.785156 22.945312 22.324219 22.945312 21.859375 22.972656 Z M 21.859375 22.972656 "/>
<path style=" stroke:none;fill-rule:nonzero;fill:rgb(100%,100%,100%);fill-opacity:1;" d="M 21.65625 16.171875 C 22.164062 16.1875 22.671875 16.132812 23.167969 16.28125 C 23.730469 16.453125 23.996094 16.84375 24.015625 17.402344 C 24.039062 17.960938 23.753906 18.378906 23.203125 18.539062 C 22.292969 18.808594 21.355469 18.679688 20.429688 18.664062 C 20.136719 18.664062 20.125 18.417969 20.121094 18.203125 C 20.117188 17.722656 20.132812 17.238281 20.113281 16.757812 C 20.09375 16.324219 20.261719 16.136719 20.703125 16.164062 C 21.019531 16.191406 21.335938 16.171875 21.65625 16.171875 Z M 21.65625 16.171875 "/>
<path style=" stroke:none;fill-rule:nonzero;fill:rgb(100%,100%,100%);fill-opacity:1;" d="M 11.746094 20.714844 C 9.945312 20.726562 9.945312 20.726562 10.65625 19.109375 C 10.917969 18.511719 11.179688 17.914062 11.445312 17.320312 C 11.503906 17.195312 11.542969 17.011719 11.710938 16.996094 C 11.878906 16.980469 11.933594 17.164062 11.992188 17.289062 C 12.417969 18.253906 12.835938 19.21875 13.265625 20.179688 C 13.441406 20.578125 13.292969 20.722656 12.890625 20.71875 C 12.507812 20.710938 12.128906 20.714844 11.746094 20.714844 Z M 11.746094 20.714844 "/>
</g>
</svg>

