<svg id="Layer_1" data-name="Layer 1" xmlns="http://www.w3.org/2000/svg" width="1.34cm" height="1.34cm" viewBox="0 0 38 38"><defs><style>.cls-1{fill:#bf360c;}.cls-2{fill:#e64a19;}.cls-3{fill:#ffc107;}</style></defs><title>industry</title><g id="surface1"><path class="cls-1" d="M41.2,5H33.9L32,43H43Z" transform="translate(-5 -5)"/><path class="cls-2" d="M33,23H29V17L17,23V17L5,23V43H33Z" transform="translate(-5 -5)"/><path class="cls-3" d="M9,27h4v4H9Z" transform="translate(-5 -5)"/><path class="cls-3" d="M17,27h4v4H17Z" transform="translate(-5 -5)"/><path class="cls-3" d="M25,27h4v4H25Z" transform="translate(-5 -5)"/><path class="cls-3" d="M9,35h4v4H9Z" transform="translate(-5 -5)"/><path class="cls-3" d="M17,35h4v4H17Z" transform="translate(-5 -5)"/><path class="cls-3" d="M25,35h4v4H25Z" transform="translate(-5 -5)"/></g></svg>