<?xml version="1.0" encoding="UTF-8"?>
<!DOCTYPE svg PUBLIC "-//W3C//DTD SVG 1.0//EN" "http://www.w3.org/TR/2001/REC-SVG-20010904/DTD/svg10.dtd">
<!-- Creator: CorelDRAW 2017 -->
<svg xmlns="http://www.w3.org/2000/svg" xml:space="preserve" width="48px" height="48px" version="1.0" shape-rendering="geometricPrecision" text-rendering="geometricPrecision" image-rendering="optimizeQuality" fill-rule="evenodd" clip-rule="evenodd"
viewBox="0 0 48000 48000"
 xmlns:xlink="http://www.w3.org/1999/xlink">
 <g id="Layer_x0020_1">
  <metadata id="CorelCorpID_0Corel-Layer"/>
  <g id="_1735302216816">
   <path fill="#96989A" d="M10700 25860l-8580 -10 0 3160c390,90 1050,140 1490,180l3190 330c580,80 1020,130 1620,130 50,600 540,1870 760,2400l1100 2050c-820,1230 -3180,3800 -3990,5010l4430 4470 5030 -4010 430 320c970,530 3050,1460 4020,1540 0,1250 340,3330 460,4730 40,490 90,1150 190,1570l3160 0 3140 0c180,-770 650,-5740 650,-6300 1150,-100 3580,-1210 4540,-1860 160,230 360,350 590,530 1000,800 3500,2900 4330,3460l4470 -4430c-290,-410 -3720,-4740 -4010,-4930 410,-610 750,-1350 1080,-2070 220,-460 730,-1940 780,-2480 550,0 5580,-480 6300,-640l0 -3170 -8630 20 -3900 -20c-220,5390 -3980,9190 -9370,9360l0 -10c-3070,-140 -5030,-1190 -6580,-2740 -1360,-1370 -2790,-3720 -2720,-6600l40 -8640c-240,640 -80,7350 -80,8640l-3940 10z"/>
   <path fill="#FC613A" d="M37250 25860l8630 -20c0,-1660 0,-3330 0,-4990 0,-2290 190,-4330 -1800,-5710 -1670,-1160 -4440,-780 -6800,-780 -870,0 -1740,0 -2620,0 -430,0 -860,0 -1300,-10 -600,0 -770,100 -1330,100 250,410 450,510 670,940 810,1530 650,2260 650,4070 0,2120 20,4260 0,6380l3900 20zm10 -13540c1530,0 2680,-670 3470,-1450 740,-740 1450,-2010 1450,-3470 0,-2640 -2270,-4910 -4900,-4910 -2680,0 -4930,2230 -4940,4910 -20,2710 2220,4920 4920,4920z"/>
   <path fill="#606062" d="M23980 35190l0 10c5390,-170 9150,-3970 9370,-9360l-9350 10 -9320 0c-70,2880 1360,5230 2720,6600 1550,1550 3510,2600 6580,2740z"/>
   <path fill="#FCBF29" d="M10700 25860l3940 -10c0,-1290 -160,-8000 80,-8640 0,-550 240,-1120 460,-1570 290,-580 530,-750 810,-1190l-610 -50c-500,-150 -5160,-40 -6120,-40 -2550,0 -5590,-330 -6800,2470 -410,950 -340,1530 -340,2810 0,2070 0,4140 0,6210l8580 10zm780 -13590c1830,-370 3050,-1380 3790,-3030 180,-400 380,-1390 360,-1910 -60,-1010 -300,-1740 -780,-2560 -740,-1300 -2120,-1940 -3550,-2240 -1230,-350 -2870,420 -3880,1270 -2350,1970 -1940,5770 80,7310 480,380 940,750 1630,970 510,150 1710,390 2350,190z"/>
   <path fill="#4CB2E8" d="M24000 260c-1360,0 -2390,400 -3360,1190 -3940,3220 -1610,9480 3380,9480 3540,0 6480,-3560 4880,-7500 -170,-440 -450,-840 -750,-1200 -150,-180 -170,-250 -320,-410 -370,-410 -1140,-860 -1600,-1090 -630,-320 -1270,-470 -2230,-470zm-8010 14190c-280,440 -520,610 -810,1190 -220,450 -460,1020 -460,1570l-40 8640 9320 0 9350 -10c20,-2120 0,-4260 0,-6380 0,-1810 160,-2540 -650,-4070 -220,-430 -420,-530 -670,-940 -930,-650 -1570,-1300 -3300,-1300 -1560,0 -3130,0 -4690,0 -2100,0 -4950,-240 -6610,380 -920,350 -1030,700 -1440,920z"/>
  </g>
 </g>
</svg>
