<?xml version="1.0" encoding="utf-8"?>
<!-- Generator: Adobe Illustrator 23.0.1, SVG Export Plug-In . SVG Version: 6.00 Build 0)  -->
<svg version="1.1" id="Layer_1" xmlns="http://www.w3.org/2000/svg" xmlns:xlink="http://www.w3.org/1999/xlink" x="0px" y="0px"
	 width="40px" height="40px" viewBox="0 0 40 40" style="enable-background:new 0 0 40 40;" xml:space="preserve">
<style type="text/css">
	.st0{fill-rule:evenodd;clip-rule:evenodd;fill:#43BFBA;}
	.st1{fill-rule:evenodd;clip-rule:evenodd;fill:#01524D;}
	.st2{fill-rule:evenodd;clip-rule:evenodd;fill:#F6901E;}
</style>
<g>
	<g>
		<path class="st0" d="M11.6,18.7L16,22c-1.3,2.1-3.5,4.1-6.3,6.1l-8.8-5.2L11.6,18.7z"/>
		<path class="st1" d="M16.3,21.4c0.1-0.3,0.4-0.7,0.7-1.1s0.4-0.7,0.6-1.1c0.1-0.3,0.4-0.7,0.6-1c0.1-0.3,0.3-0.7,0.6-1
			c0.1-0.4,0.4-0.7,0.6-1.1c0.1-0.3,0.3-0.6,0.4-0.8c0.1-0.3,0.3-0.6,0.4-0.8c0.1-0.3,0.3-0.6,0.4-0.8c0.1-0.3,0.3-0.6,0.4-1
			c0.1-0.4,0.3-0.8,0.6-1.1c0.1-0.4,0.3-0.8,0.6-1.1c0.1-0.4,0.3-0.7,0.4-1.1c0.1-0.4,0.3-0.7,0.4-1c0.1-0.3,0-0.1-0.1,0.3
			c-0.1,0.3-0.6,0.8-0.9,1.3c-0.3,0.4-0.4,0.7-0.6,1s-0.3,0.4-0.6,0.7c-0.1,0.3-0.4,0.4-0.6,0.7c-0.3,0.3-0.6,0.6-0.7,0.7
			c-0.3,0.1-0.4,0.3-0.6,0.4c-0.1,0.1-0.4,0.3-0.7,0.4c-0.1,0.1-0.3,0.1-0.4,0.3c-0.1,0-0.3,0.1-0.4,0.1c-0.1,0-0.3,0.1-0.4,0.1
			c-0.1,0-0.3,0.1-0.3,0.1c-0.1,0-0.3,0.1-0.4,0.1c-0.1,0.1-0.3,0.1-0.6,0.4c-0.3,0.3-0.4,0.3-0.9,0.7c-0.3,0.3-0.7,0.7-1,1
			c-0.3,0.3-0.6,0.6-0.7,0.8c-0.3,0.3-0.4,0.6-0.6,0.7C12,18.3,12,18.3,12,18.4v0.1c0,0,0.1,0.1,0.4,0.3c0.3,0.1,0.6,0.4,1,0.8
			c0.4,0.3,1,0.7,1.5,1.1c0.4,0.3,0.7,0.6,0.9,0.7c0.1,0.1,0.1,0.1,0.1,0.1l0,0C16,21.7,16.1,21.5,16.3,21.4L16.3,21.4z"/>
		<path class="st2" d="M10.7,28.2c0,0,0.1,0,0.3-0.1c0.1,0,0.1,0,0.3,0s0.1,0,0.3,0c0.1,0,0.3,0,0.4,0c0.1,0,0.3,0,0.3,0.1
			c0.1,0,0.3,0.1,0.3,0.1c0.1,0.1,0.1,0.1,0.3,0.3c0.1,0.1,0.1,0.1,0.3,0.3c0.1,0.1,0.3,0.3,0.3,0.4c0.1,0.1,0.1,0.3,0.3,0.4
			c0.1,0.1,0.3,0.4,0.4,0.7c0.1,0.3,0.3,0.4,0.4,0.8s0.4,1.1,0.7,1.6c0.1,0.6,0.3,0.8,0.4,1.3c0.1,0.4,0.3,0.7,0.4,1
			c0.1,0.3,0.3,0.6,0.4,0.8c0.1,0.3,0.3,0.6,0.4,0.7c0.1,0.3,0.3,0.4,0.3,0.6c0.1,0.1,0.1,0.3,0.3,0.4c0,0.1,0.1,0.1,0.1,0
			c0.1,0,0.3,0,0.4-0.1c0.3-0.1,0.6-0.3,1-0.4c0.4-0.3,0.9-0.6,1.3-0.7c0.4-0.3,0.6-0.4,0.9-0.6s0.4-0.4,0.9-0.7
			c0.3-0.3,0.9-0.7,1.2-1.1c0.4-0.4,0.7-0.7,1-1s0.7-0.7,0.9-1c0.3-0.3,0.4-0.4,0.7-0.7c0.3-0.3,0.7-0.8,1-1.1
			c0.3-0.3,0.4-0.4,0.7-0.8c0.3-0.3,0.7-0.7,1.2-1c0.3-0.3,0.6-0.4,0.7-0.6c0.1-0.1,0.4-0.3,0.6-0.3c0.1-0.1,0.3-0.1,0.6-0.1
			c0.1,0,0.3,0,0.6-0.1c0.3,0,0.4,0,0.7,0c0.3,0,0.4,0.1,0.6,0.1c0.1,0,0.4,0.1,0.7,0.3c0.3,0.1,0.6,0.3,0.9,0.6
			c0.3,0.3,0.6,0.4,0.9,0.7c0.3,0.1,0.4,0.4,0.6,0.6c0.1,0.1,0.4,0.4,0.7,0.6c0.3,0.3,0.6,0.6,0.9,0.8c0.3,0.3,0.6,0.4,0.7,0.6
			c0.1,0.1,0.3,0.3,0.4,0.3c0.1,0.1,0.3,0.1,0.3,0.3c0.1,0,0.1,0.1,0.1,0.1l0,0c0,0-0.1-0.1-0.1-0.4c-0.1-0.1-0.1-0.4-0.4-0.8
			c-0.1-0.4-0.4-0.8-0.6-1.4c-0.3-0.6-0.4-1.1-0.6-1.6s-0.3-0.8-0.4-1.1c-0.1-0.3-0.3-0.6-0.3-1c-0.1-0.3-0.3-0.7-0.4-1
			c-0.1-0.3-0.3-0.7-0.3-1c-0.1-0.4-0.3-0.8-0.4-1.1c-0.1-0.4-0.3-0.7-0.4-1.1s-0.4-1.1-0.6-1.6c-0.1-0.4-0.3-0.7-0.3-0.8
			c-0.1-0.3-0.1-0.4-0.3-0.7s-0.1-0.4-0.3-0.8c-0.1-0.4-0.3-1-0.6-1.6c-0.1-0.6-0.4-1.4-0.7-2c-0.3-0.6-0.3-1-0.6-1.4
			c-0.1-0.4-0.4-1-0.6-1.6c-0.1-0.4-0.4-1-0.7-1.7s-0.7-1.7-1.2-2.3C29,6.6,28.9,6.3,28.7,6c-0.1-0.3-0.4-0.6-0.6-0.7
			c0-0.3,0-0.4-0.1-0.6c-0.1-0.1-0.3-0.1-0.3-0.3c-0.1-0.1-0.1-0.1-0.3-0.1c-0.1,0-0.1-0.1-0.3-0.1s-0.3,0-0.4,0
			c-0.1,0-0.3,0.1-0.3,0.1c-0.1,0.1-0.3,0.1-0.4,0.3c-0.1,0.1-0.3,0.3-0.4,0.4c-0.1,0.1-0.3,0.4-0.4,0.7c-0.1,0.3-0.3,0.7-0.6,1
			c-0.1,0.4-0.4,0.7-0.6,1.1c-0.1,0.3-0.3,0.7-0.4,1c-0.1,0.3-0.3,0.7-0.4,1c-0.1,0.3-0.3,0.7-0.4,0.8c-0.1,0.3-0.1,0.6-0.3,0.8
			s-0.3,0.6-0.4,1c-0.1,0.4-0.3,0.8-0.6,1.3c-0.1,0.4-0.3,0.7-0.6,1.1c-0.1,0.4-0.3,0.7-0.6,1.1c-0.1,0.4-0.4,0.8-0.6,1.1
			c-0.1,0.4-0.4,0.7-0.6,1.1c-0.3,0.4-0.4,0.8-0.9,1.6c-0.4,0.6-0.9,1.4-1.3,2c-0.3,0.4-0.4,0.7-0.7,1s-0.6,0.7-0.9,1.1
			c-0.1,0.3-0.4,0.6-0.9,1c-0.3,0.4-0.7,0.8-1.5,1.4c-0.6,0.6-1.5,1.1-1.8,1.4C10.7,28,10.6,28.2,10.7,28.2L10.7,28.2z"/>
	</g>
</g>
</svg>
