<?xml version="1.0" encoding="utf-8"?>
<!-- Generator: Adobe Illustrator 23.0.1, SVG Export Plug-In . SVG Version: 6.00 Build 0)  -->
<svg version="1.1" id="Layer_1" xmlns="http://www.w3.org/2000/svg" xmlns:xlink="http://www.w3.org/1999/xlink" x="0px" y="0px"
	 width="40px" height="40px" viewBox="0 0 40 40" style="enable-background:new 0 0 40 40;" xml:space="preserve">
<style type="text/css">
	.st0{fill:#4780C1;}
	.st1{fill:#8EC6EB;}
	.st2{fill:#1E54A4;}
	.st3{fill:#416CB3;}
</style>
<g>
	<path class="st0" d="M37.8,18.9v-4.6l-3.7-0.7c-0.2-1.1-0.7-2.1-1.2-3L35,7.4l-3.2-3.2l-3.2,2.1c-1-0.5-2-1-3-1.2l-0.7-3.8h-4.6
		L19.5,5c-1.1,0.2-2.1,0.7-3,1.2L13.3,4l-3.2,3.3l2.1,3.2c-0.5,1-1,2-1.2,3l-3.8,0.7v4.6l3.8,0.7c0.2,1.1,0.7,2.1,1.2,3l-2.1,3.2
		l3.2,3.3l3.2-2.1c1,0.5,2,1,3,1.2l0.7,3.8h4.6l0.7-3.8c1.1-0.2,2.1-0.7,3-1.2l3.2,2.1l3.2-3.2l-2.1-3.2c0.5-1,1-2,1.2-3L37.8,18.9z
		 M22.5,21.7c-2.8,0-5.1-2.3-5.1-5.1s2.2-5.1,5.1-5.1s5.1,2.3,5.1,5.1C27.7,19.5,25.3,21.7,22.5,21.7L22.5,21.7z"/>
	<path class="st1" d="M22.5,9c-4.2,0-7.5,3.5-7.5,7.7s3.3,7.7,7.5,7.7s7.5-3.5,7.5-7.7S26.7,9,22.5,9L22.5,9z M22.5,21.7
		c-2.8,0-5.1-2.3-5.1-5.1s2.2-5.1,5.1-5.1s5.1,2.3,5.1,5.1C27.7,19.5,25.3,21.7,22.5,21.7L22.5,21.7z"/>
	<path class="st2" d="M19,32.1v-2.3l-2-0.4c-0.1-0.5-0.4-1.1-0.6-1.6l1.1-1.7l-1.7-1.7l-1.6,1.1c-0.5-0.2-1-0.5-1.6-0.6l-0.4-2H9.8
		l-0.4,2c-0.5,0.1-1.1,0.4-1.6,0.6l-1.7-1.1L4.4,26l1.1,1.7c-0.2,0.5-0.5,1-0.6,1.6l-2,0.4v2.3l2,0.4c0.1,0.5,0.4,1.1,0.6,1.6
		l-1.1,1.7l1.7,1.7l1.7-1.1c0.5,0.2,1,0.5,1.6,0.6l0.2,2h2.3l0.4-2c0.5-0.1,1.1-0.4,1.6-0.6l1.7,1.1l1.7-1.7l-1.1-1.7
		c0.2-0.5,0.5-1,0.6-1.6L19,32.1z M11,33.6c-1.5,0-2.7-1.2-2.7-2.7s1.2-2.7,2.7-2.7s2.7,1.2,2.7,2.7C13.7,32.5,12.5,33.6,11,33.6
		L11,33.6z"/>
	<path class="st3" d="M11,26.9c-2.2,0-4,1.7-4,4s1.7,4,4,4s4-1.7,4-4C14.9,28.7,13.2,26.9,11,26.9L11,26.9z M11,33.6
		c-1.5,0-2.7-1.2-2.7-2.7s1.2-2.7,2.7-2.7s2.7,1.2,2.7,2.7C13.7,32.5,12.5,33.6,11,33.6L11,33.6z"/>
</g>
</svg>
