<?xml version="1.0" encoding="utf-8"?>
<!-- Generator: Adobe Illustrator 23.0.1, SVG Export Plug-In . SVG Version: 6.00 Build 0)  -->
<svg version="1.1" id="Layer_1" xmlns="http://www.w3.org/2000/svg" xmlns:xlink="http://www.w3.org/1999/xlink" x="0px" y="0px"
	 width="40px" height="40px" viewBox="0 0 40 40" style="enable-background:new 0 0 40 40;" xml:space="preserve">
<style type="text/css">
	.st0{fill-rule:evenodd;clip-rule:evenodd;fill:url(#SVGID_1_);}
	.st1{fill-rule:evenodd;clip-rule:evenodd;fill:url(#SVGID_2_);}
	.st2{fill-rule:evenodd;clip-rule:evenodd;fill:#69C18D;}
	.st3{fill-rule:evenodd;clip-rule:evenodd;fill:#11AD61;}
	.st4{fill-rule:evenodd;clip-rule:evenodd;fill:url(#SVGID_3_);}
	.st5{fill-rule:evenodd;clip-rule:evenodd;fill:url(#SVGID_4_);}
	.st6{fill-rule:evenodd;clip-rule:evenodd;fill:#3EB774;}
	.st7{fill-rule:evenodd;clip-rule:evenodd;fill:#148D50;}
	.st8{fill-rule:evenodd;clip-rule:evenodd;fill:url(#SVGID_5_);}
	.st9{fill-rule:evenodd;clip-rule:evenodd;fill:url(#SVGID_6_);}
	.st10{fill-rule:evenodd;clip-rule:evenodd;fill:#167844;}
	.st11{fill-rule:evenodd;clip-rule:evenodd;fill:#1A4A2A;}
	.st12{fill-rule:evenodd;clip-rule:evenodd;fill:url(#SVGID_7_);}
	.st13{fill-rule:evenodd;clip-rule:evenodd;fill:url(#SVGID_8_);}
	.st14{fill-rule:evenodd;clip-rule:evenodd;fill:url(#SVGID_9_);}
	.st15{fill-rule:evenodd;clip-rule:evenodd;fill:url(#SVGID_10_);}
	.st16{fill-rule:evenodd;clip-rule:evenodd;fill:url(#SVGID_11_);}
</style>
<g>
	
		<linearGradient id="SVGID_1_" gradientUnits="userSpaceOnUse" x1="10328.6104" y1="-14089.1689" x2="9900.2646" y2="-13864.7227" gradientTransform="matrix(2.834645e-02 0 0 -2.834645e-02 -269.148 -388.5023)">
		<stop  offset="0" style="stop-color:#159757"/>
		<stop  offset="1" style="stop-color:#0C7A47"/>
	</linearGradient>
	<path class="st0" d="M25,3.4H11.8c-0.9,0-1.6,0.7-1.6,1.6V12v0H25V3.4z"/>
	
		<linearGradient id="SVGID_2_" gradientUnits="userSpaceOnUse" x1="10845.834" y1="-14097.9199" x2="10417.4893" y2="-13873.4746" gradientTransform="matrix(2.834645e-02 0 0 -2.834645e-02 -269.148 -388.5023)">
		<stop  offset="0" style="stop-color:#5BBE89"/>
		<stop  offset="1" style="stop-color:#0DAA63"/>
	</linearGradient>
	<path class="st1" d="M39.7,12L39.7,12V4.9c0-0.9-0.7-1.6-1.6-1.6H25h0V12h0L39.7,12L39.7,12z"/>
	<polygon class="st2" points="25,11.8 25,11.8 39.7,11.8 39.7,12 25,12 25,12 	"/>
	<polygon class="st3" points="10.2,11.8 25,11.8 25,12 10.2,12 	"/>
	
		<linearGradient id="SVGID_3_" gradientUnits="userSpaceOnUse" x1="10327.042" y1="-14391.2969" x2="9901.833" y2="-14164.71" gradientTransform="matrix(2.834645e-02 0 0 -2.834645e-02 -269.148 -388.5023)">
		<stop  offset="0" style="stop-color:#11864C"/>
		<stop  offset="1" style="stop-color:#0A6F3C"/>
	</linearGradient>
	<polygon class="st4" points="25,12 10.2,12 10.2,20.5 10.2,20.5 25,20.5 	"/>
	
		<linearGradient id="SVGID_4_" gradientUnits="userSpaceOnUse" x1="10848.8525" y1="-14391.2969" x2="10423.6426" y2="-14164.71" gradientTransform="matrix(2.834645e-02 0 0 -2.834645e-02 -269.148 -388.5023)">
		<stop  offset="0" style="stop-color:#55BB7E"/>
		<stop  offset="1" style="stop-color:#1A9356"/>
	</linearGradient>
	<polygon class="st5" points="39.7,20.5 39.7,20.5 39.7,12 25,12 25,12 25,20.5 25,20.5 	"/>
	<polygon class="st6" points="25,20.3 25,20.3 39.7,20.3 39.7,20.5 25,20.5 25,20.5 	"/>
	<polygon class="st7" points="10.2,20.3 25,20.3 25,20.5 10.2,20.5 	"/>
	
		<linearGradient id="SVGID_5_" gradientUnits="userSpaceOnUse" x1="10327.043" y1="-14689.7949" x2="9901.834" y2="-14463.207" gradientTransform="matrix(2.834645e-02 0 0 -2.834645e-02 -269.148 -388.5023)">
		<stop  offset="0" style="stop-color:#174A2D"/>
		<stop  offset="1" style="stop-color:#123E26"/>
	</linearGradient>
	<polygon class="st8" points="25,20.4 10.2,20.4 10.2,29 10.2,29 25,29 	"/>
	
		<linearGradient id="SVGID_6_" gradientUnits="userSpaceOnUse" x1="10848.8535" y1="-14689.7949" x2="10423.6445" y2="-14463.207" gradientTransform="matrix(2.834645e-02 0 0 -2.834645e-02 -269.148 -388.5023)">
		<stop  offset="0" style="stop-color:#3BB672"/>
		<stop  offset="1" style="stop-color:#1B7E4B"/>
	</linearGradient>
	<polygon class="st9" points="39.7,29 39.7,28.9 39.7,20.4 25,20.4 25,20.4 25,29 25,29 	"/>
	<polygon class="st10" points="25,28.7 25,28.7 39.7,28.7 39.7,29 25,29 25,29 	"/>
	<polygon class="st11" points="10.2,28.7 25,28.7 25,29 10.2,29 	"/>
	
		<linearGradient id="SVGID_7_" gradientUnits="userSpaceOnUse" x1="10850.7803" y1="-14992.9307" x2="10421.7158" y2="-14768.9854" gradientTransform="matrix(2.834645e-02 0 0 -2.834645e-02 -269.148 -388.5023)">
		<stop  offset="0" style="stop-color:#2D6F45"/>
		<stop  offset="1" style="stop-color:#194B2D"/>
	</linearGradient>
	<path class="st12" d="M25,37.7L25,37.7h13.2c0.9,0,1.6-0.7,1.6-1.6V29H25h0V37.7z"/>
	
		<linearGradient id="SVGID_8_" gradientUnits="userSpaceOnUse" x1="10333.5322" y1="-14984.1895" x2="9904.4678" y2="-14760.2412" gradientTransform="matrix(2.834645e-02 0 0 -2.834645e-02 -269.148 -388.5023)">
		<stop  offset="0" style="stop-color:#174E30"/>
		<stop  offset="1" style="stop-color:#183C27"/>
	</linearGradient>
	<path class="st13" d="M11.8,37.7H25V29H10.2v7.1C10.2,37,10.9,37.7,11.8,37.7z"/>
	
		<linearGradient id="SVGID_9_" gradientUnits="userSpaceOnUse" x1="10181.2012" y1="-14530.5703" x2="9519.1602" y2="-14326.8643" gradientTransform="matrix(2.834645e-02 0 0 -2.834645e-02 -269.148 -388.5023)">
		<stop  offset="0" style="stop-color:#0B7C3F"/>
		<stop  offset="1" style="stop-color:#0B5028"/>
	</linearGradient>
	<path class="st14" d="M1.8,30.3h16.5c0.9,0,1.6-0.7,1.6-1.6V12.2c0-0.9-0.7-1.6-1.6-1.6H1.8c-0.9,0-1.6,0.7-1.6,1.6v16.5
		C0.3,29.6,1,30.3,1.8,30.3z"/>
	
		<linearGradient id="SVGID_10_" gradientUnits="userSpaceOnUse" x1="9503.8447" y1="-14428.7188" x2="10196.5127" y2="-14428.7188" gradientTransform="matrix(2.834645e-02 0 0 -2.834645e-02 -269.148 -388.5023)">
		<stop  offset="0" style="stop-color:#4C9A6A"/>
		<stop  offset="0.502" style="stop-color:#166C38"/>
		<stop  offset="1" style="stop-color:#27A85E"/>
	</linearGradient>
	<path class="st15" d="M1.8,30.3h16.5c0.9,0,1.6-0.7,1.6-1.6V12.2c0-0.9-0.7-1.6-1.6-1.6h-0.1c0.8,0,1.5,0.7,1.5,1.5v16.4
		c0,0.8-0.7,1.5-1.5,1.5H1.9c-0.8,0-1.5-0.7-1.5-1.5V12.2c0-0.8,0.7-1.5,1.5-1.5H1.8c-0.9,0-1.6,0.7-1.6,1.6v16.5
		C0.3,29.6,1,30.3,1.8,30.3z"/>
	
		<linearGradient id="SVGID_11_" gradientUnits="userSpaceOnUse" x1="9686.4092" y1="-14427.8555" x2="10012.6143" y2="-14427.8555" gradientTransform="matrix(2.834645e-02 0 0 -2.834645e-02 -269.148 -388.5023)">
		<stop  offset="0" style="stop-color:#C0CECD"/>
		<stop  offset="1" style="stop-color:#FFFFFF"/>
	</linearGradient>
	<polygon class="st16" points="5.7,15.4 8.2,15.4 10.1,19.2 12.2,15.4 14.6,15.4 11.5,20.5 14.7,25.6 12.3,25.6 10.1,21.6 7.9,25.6 
		5.4,25.6 8.8,20.5 	"/>
</g>
</svg>
