<svg id="Layer_1" data-name="Layer 1" xmlns="http://www.w3.org/2000/svg" width="1.41cm" height="1.41cm" viewBox="0 0 40 40"><defs><style>.cls-1{fill:#f8bbd0;}.cls-2{fill:#ffccbc;}.cls-3{fill:#ffcdd2;}.cls-4{fill:#dcedc8;}.cls-5{fill:#b2ebf2;}.cls-6{fill:#c8e6c9;}.cls-7{fill:#ffe0b2;}.cls-8{fill:#fff9c4;}.cls-9{fill:#ffecb3;}.cls-10{fill:#c5cae9;}.cls-11{fill:#e1bee7;}.cls-12{fill:#d1c4e9;}.cls-13{fill:#f06292;}.cls-14{fill:#e57373;}.cls-15{fill:#aed581;}.cls-16{fill:#81c784;}.cls-17{fill:#ffb74d;}.cls-18{fill:#9575cd;}.cls-19{fill:#7986cb;}.cls-20{fill:#ffd54f;}.cls-21{fill:#ba68c8;}.cls-22{fill:#ff8a65;}.cls-23{fill:#fff176;}.cls-24{fill:#4fc3f7;}.cls-25{fill:#e91e63;}.cls-26{fill:#f44336;}.cls-27{fill:#8bc34a;}.cls-28{fill:#4caf50;}.cls-29{fill:#ff9800;}.cls-30{fill:#673ab7;}.cls-31{fill:#3f51b5;}.cls-32{fill:#ffc107;}.cls-33{fill:#9c27b0;}.cls-34{fill:#ff5722;}.cls-35{fill:#ffeb3b;}.cls-36{fill:#03a9f4;}</style></defs><title>graphics</title><g id="surface1"><path class="cls-1" d="M24,4V24L14,6.68Z" transform="translate(-4 -4)"/><path class="cls-2" d="M34,6.68,41.32,14,24,24Z" transform="translate(-4 -4)"/><path class="cls-3" d="M24,4,34,6.68,24,24Z" transform="translate(-4 -4)"/><path class="cls-4" d="M24,44V24L34,41.32Z" transform="translate(-4 -4)"/><path class="cls-5" d="M14,41.32,6.68,34,24,24Z" transform="translate(-4 -4)"/><path class="cls-6" d="M24,44,14,41.32,24,24Z" transform="translate(-4 -4)"/><path class="cls-7" d="M44,24H24L41.32,14Z" transform="translate(-4 -4)"/><path class="cls-8" d="M41.32,34,34,41.32,24,24Z" transform="translate(-4 -4)"/><path class="cls-9" d="M44,24,41.32,34,24,24Z" transform="translate(-4 -4)"/><path class="cls-10" d="M4,24H24L6.68,34Z" transform="translate(-4 -4)"/><path class="cls-11" d="M6.68,14,14,6.68,24,24Z" transform="translate(-4 -4)"/><path class="cls-12" d="M4,24,6.68,14,24,24Z" transform="translate(-4 -4)"/></g><polygon class="cls-13" points="20 20 20 5 12.53 7.07 20 20"/><polygon class="cls-14" points="27.47 7.06 20 5 20 20 27.47 7.06"/><polygon class="cls-15" points="20 20 20 35 27.47 32.94 20 20"/><polygon class="cls-16" points="12.53 32.93 20 35 20 20 12.53 32.93"/><polygon class="cls-17" points="35 20 32.93 12.53 20 20 35 20"/><polygon class="cls-18" points="7.07 12.54 5 20 20 20 7.07 12.54"/><polygon class="cls-19" points="20 20 5 20 7.07 27.47 20 20"/><polygon class="cls-20" points="35 20 20.01 20 32.94 27.47 35 20"/><polygon class="cls-21" points="7.07 12.53 20 20 12.5 7.01 7.07 12.53"/><polygon class="cls-22" points="27.5 7.01 20 20 32.93 12.51 27.5 7.01"/><polygon class="cls-23" points="20.01 20 20 20 27.5 32.92 32.99 27.5 20.01 20"/><polygon class="cls-24" points="19.62 20.65 20 20 19.99 20.01 7.02 27.51 12.53 32.93 19.62 20.65"/><polygon class="cls-25" points="20 20 20 11.01 15.51 12.22 20 20"/><polygon class="cls-26" points="20 11.01 20 20 24.49 12.22 20 11.01"/><polygon class="cls-27" points="20 20.02 20 29.01 24.49 27.81 20 20.02"/><polygon class="cls-28" points="20 29.01 20 20.02 15.51 27.81 20 29.01"/><polygon class="cls-29" points="29 20 27.8 15.52 20.03 20 29 20"/><polygon class="cls-30" points="19.97 20 12.21 15.52 11 20 19.97 20"/><polygon class="cls-31" points="11 20.01 12.2 24.5 19.98 20.01 11 20.01"/><polygon class="cls-32" points="27.8 24.5 29 20.01 20.02 20.01 27.8 24.5"/><polygon class="cls-33" points="20 20 15.5 12.22 12.22 15.51 20 20"/><polygon class="cls-34" points="24.5 12.22 20.22 19.62 20 20 27.78 15.51 24.5 12.22"/><polygon class="cls-35" points="24.5 27.8 27.79 24.51 20.01 20.02 24.5 27.8"/><polygon class="cls-36" points="12.21 24.51 15.5 27.8 19.99 20.02 12.21 24.51"/></svg>