<svg id="Layer_1" data-name="Layer 1" xmlns="http://www.w3.org/2000/svg" width="1.27cm" height="1.27cm" viewBox="0 0 36 36"><defs><style>.cls-1{fill:#cfd8dc;}.cls-2{fill:#263238;}.cls-3{fill:#76ff03;}.cls-4{fill:#90a4ae;}</style></defs><title>programming</title><g id="surface1"><path class="cls-1" d="M42,42H6V7A.94.94,0,0,1,7,6H41a.94.94,0,0,1,1,1Z" transform="translate(-6 -6)"/><path class="cls-2" d="M8,13H40V40H8Z" transform="translate(-6 -6)"/><path class="cls-3" d="M15.5,26.4,19,28.5V31l-6-3.7V25.2L19,22v2.5Z" transform="translate(-6 -6)"/><path class="cls-3" d="M23,33H21l4-14h2Z" transform="translate(-6 -6)"/><path class="cls-3" d="M32.5,26.5l-3.5-2V22l6,3.4v2.1L29,31V28.5Z" transform="translate(-6 -6)"/><path class="cls-4" d="M15,9.5A1.5,1.5,0,1,1,13.5,8,1.5,1.5,0,0,1,15,9.5Z" transform="translate(-6 -6)"/><path class="cls-4" d="M11,9.5A1.5,1.5,0,1,1,9.5,8,1.5,1.5,0,0,1,11,9.5Z" transform="translate(-6 -6)"/></g></svg>