<?xml version="1.0" encoding="utf-8"?>
<!-- Generator: Adobe Illustrator 23.0.1, SVG Export Plug-In . SVG Version: 6.00 Build 0)  -->
<svg version="1.1" id="Layer_1" xmlns="http://www.w3.org/2000/svg" xmlns:xlink="http://www.w3.org/1999/xlink" x="0px" y="0px"
	 width="40px" height="40px" viewBox="0 0 40 40" style="enable-background:new 0 0 40 40;" xml:space="preserve">
<style type="text/css">
	.st0{fill:#1B95E0;}
	.st1{fill:#167ECC;}
	.st2{fill:#F2F2FC;}
	.st3{fill:#E3E3F9;}
	.st4{fill:#FF4F19;}
	.st5{fill:#E9001E;}
	.st6{fill:#FF9600;}
	.st7{fill:#FF7F00;}
	.st8{fill:#FFD200;}
	.st9{fill:#FFB000;}
	.st10{fill:#74675A;}
	.st11{fill:#53DCFF;}
	.st12{fill:#B3F4FF;}
	.st13{fill:#B2B1B2;}
	.st14{fill:#939393;}
	.st15{fill:#6F6571;}
	.st16{fill:#FFFFFF;}
	.st17{fill:#C3DDFF;}
	.st18{fill:#DBEAFF;}
	.st19{fill:#FF8086;}
	.st20{fill:#E5646E;}
	.st21{fill:#DAD8DB;}
	.st22{fill:#FFE07D;}
	.st23{fill:#FFD064;}
	.st24{fill:#C8C5C9;}
	.st25{fill:#A4CCFF;}
	.st26{fill:#766D78;}
	.st27{fill:#655E67;}
	.st28{fill:#F0A70A;}
	.st29{fill:#E38803;}
	.st30{fill:#FDC202;}
	.st31{fill:#8E8391;}
	.st32{fill:#40C1FA;}
	.st33{fill:#07A9F0;}
	.st34{fill:#B3ADB6;}
	.st35{fill:#A49CA7;}
</style>
<g>
	<path class="st26" d="M38.7,18.7c-0.6-1.7-2.4-2.6-4.1-2c-0.6,0.2-1.2,0.6-1.5,1.1l-3.4-1.7c-0.3-0.1-0.7,0-0.8,0.3
		c-0.1,0.3,0,0.7,0.3,0.8l3.4,1.7c-0.2,0.6-0.2,1.3,0.1,1.9c0.6,1.7,2.4,2.6,4.1,2c0.3-0.1,0.5-0.4,0.4-0.8
		c-0.1-0.3-0.4-0.5-0.8-0.4c-1.1,0.4-2.2-0.2-2.6-1.3c-0.4-1.1,0.2-2.2,1.3-2.6c1.1-0.4,2.2,0.2,2.6,1.3c0.1,0.3,0.4,0.5,0.8,0.4
		C38.6,19.4,38.8,19.1,38.7,18.7L38.7,18.7z"/>
	<circle class="st26" cx="29.1" cy="16.3" r="2.4"/>
	<path class="st27" d="M30.7,18.1c-0.4,0.4-1,0.6-1.7,0.6c-1.3,0-2.4-1.1-2.4-2.4c0-1.3,1.1-2.4,2.4-2.4c0.2,0,0.3,0,0.5,0
		c-0.5,0.4-0.8,1.1-0.8,1.8C28.7,16.9,29.6,17.9,30.7,18.1L30.7,18.1z"/>
	<path class="st28" d="M29.7,12.3L23,1.6l-5.5,3.8L25,15.5c0.6,0.7,1.6,0.9,2.4,0.4l1.8-1.2C30,14.1,30.2,13.1,29.7,12.3L29.7,12.3z
		"/>
	<path class="st29" d="M27.9,15.6l-0.5,0.3c-0.8,0.5-1.8,0.4-2.4-0.4L17.5,5.4L23,1.6L23.8,3l-3.6,2.5L27.9,15.6
		C27.8,15.5,27.8,15.6,27.9,15.6L27.9,15.6z"/>
	<path class="st30" d="M7.1,19.6c-1.9-1.9-1.8-4.9,0.1-6.7L20,1C21,0.1,22.4,0.1,23.3,1l2.2,2.1c0.9,0.9,1,2.4,0.1,3.3L13.8,19.4
		C12,21.4,9,21.4,7.1,19.6L7.1,19.6z"/>
	<circle class="st27" cx="21.5" cy="5" r="1.2"/>
	<path class="st28" d="M9,20.5c0.1,0.1,0.3,0.2,0.4,0.3c-0.8-0.2-1.7-0.6-2.3-1.2c-1.9-1.9-1.8-4.9,0.1-6.7L20,1
		C21,0.1,22.4,0.1,23.3,1l0.2,0.2c-0.6,0-1.2,0.2-1.6,0.6L9.1,13.8C7.2,15.6,7.1,18.6,9,20.5L9,20.5z"/>
	<path class="st31" d="M39.7,33.6v2.2c0,1.3-1.1,2.4-2.4,2.4H15.2v-7h22.2C38.6,31.2,39.7,32.3,39.7,33.6z"/>
	<g>
		<path class="st32" d="M26.8,31.2h-4.3v-4.6c0-0.2,0.2-0.4,0.4-0.4h3.5c0.2,0,0.4,0.2,0.4,0.4V31.2z"/>
		<path class="st32" d="M35.7,31.2h-4.3v-4.6c0-0.2,0.2-0.4,0.4-0.4h3.5c0.2,0,0.4,0.2,0.4,0.4V31.2z"/>
	</g>
	<path class="st33" d="M25,26.2c-0.2,0-0.4,0.2-0.4,0.4v4.6h-2.1v-4.6c0-0.2,0.2-0.4,0.4-0.4H25z"/>
	<path class="st33" d="M33.9,26.2c-0.2,0-0.4,0.2-0.4,0.4v4.6h-2.1v-4.6c0-0.2,0.2-0.4,0.4-0.4H33.9z"/>
	<path class="st26" d="M22.9,33.2v5h-7.8v-7h7.1C22.7,31.8,22.9,32.5,22.9,33.2L22.9,33.2z"/>
	<path class="st34" d="M17.9,32H2.7l0.7-18.3c0.1-2.5,2.1-4.4,4.6-4.4h4.5c2.5,0,4.5,2,4.6,4.4L17.9,32z"/>
	<circle class="st27" cx="10.3" cy="13.8" r="1.8"/>
	<path class="st35" d="M10.9,9.2c-2.5,0-4.5,2-4.6,4.4L5.5,32H2.7l0.7-18.3c0.1-2.5,2.1-4.4,4.6-4.4H10.9z"/>
	<path class="st30" d="M17.7,26.4H3.1c-0.9,0-1.6-0.7-1.6-1.6v-4.5c0-0.9,0.7-1.6,1.6-1.6h14.6c0.9,0,1.6,0.7,1.6,1.6v4.5
		C19.2,25.7,18.5,26.4,17.7,26.4z"/>
	<path class="st30" d="M1.1,39.7h18.4c0.4,0,0.8-0.4,0.8-0.8v-5.7c0-1.8-1.5-3.3-3.3-3.3H3.6c-1.8,0-3.3,1.5-3.3,3.3v5.7
		C0.3,39.3,0.7,39.7,1.1,39.7L1.1,39.7z"/>
	<path class="st28" d="M5.9,26.4H3.1c-0.9,0-1.6-0.7-1.6-1.6v-4.5c0-0.9,0.7-1.6,1.6-1.6h2.8c-0.9,0-1.6,0.7-1.6,1.6v4.5
		C4.3,25.7,5,26.4,5.9,26.4z"/>
	<path class="st28" d="M3.1,33.2v5.7c0,0.4,0.4,0.8,0.8,0.8H1.1c-0.4,0-0.8-0.4-0.8-0.8v-5.7c0-1.8,1.5-3.3,3.3-3.3h2.8
		C4.6,29.9,3.1,31.4,3.1,33.2L3.1,33.2z"/>
</g>
</svg>
