<?xml version="1.0" encoding="utf-8"?>
<!-- Generator: Adobe Illustrator 23.0.1, SVG Export Plug-In . SVG Version: 6.00 Build 0)  -->
<svg version="1.1" id="Layer_1" xmlns="http://www.w3.org/2000/svg" xmlns:xlink="http://www.w3.org/1999/xlink" x="0px" y="0px"
	 width="40px" height="40px" viewBox="0 0 40 40" style="enable-background:new 0 0 40 40;" xml:space="preserve">
<style type="text/css">
	.st0{fill:#74675A;}
	.st1{fill:#69CDEF;}
	.st2{fill:#BAE4F1;}
	.st3{fill:#EF5226;}
	.st4{fill:#E71E25;}
	.st5{fill:#B2B0B1;}
	.st6{fill:#FDD106;}
	.st7{fill:#F7941D;}
	.st8{fill:#929292;}
</style>
<g>
	<path class="st0" d="M3.4,37.5V13.6c0-1,0.9-2,1.9-2h29.5c1.1,0,1.9,0.8,1.9,2v23.9"/>
	<path class="st1" d="M34.8,34.9h-1.3l-0.8-0.7H7.5l-1,0.7H5.4c-0.4,0-0.6-0.3-0.6-0.6V13.6c0-0.3,0.3-0.6,0.6-0.6h29.5
		c0.4,0,0.6,0.3,0.6,0.6v20.6C35.5,34.7,35.2,34.9,34.8,34.9z"/>
	<path class="st2" d="M32.9,33.6H7.3C6.6,33.6,6,33,6,32.3V15.6c0-0.7,0.6-1.3,1.3-1.3H33c0.7,0,1.3,0.6,1.3,1.3v16.8
		C34.2,33,33.6,33.6,32.9,33.6z"/>
	<path class="st3" d="M12.3,23.1l-2.9,3.4c-0.4,0.4-0.7,1.2-0.7,1.8v1c0,0.7,0.7,1.2,1.3,0.7l3.9-2.2L12.3,23.1z"/>
	<path class="st4" d="M14,28.1l2.9-1.6l-2.8-5.7l-1.9,2.4C12.7,24.9,13.3,26.6,14,28.1z"/>
	<path class="st3" d="M25.4,20.7l5,5.8c0.4,0.4,0.7,1.2,0.7,1.8v1c0,0.7-0.7,1.2-1.3,0.7l-7-3.9L25.4,20.7z"/>
	<path class="st5" d="M0.9,36.8v1.4h37.7l1.3-0.7v-0.6c0-0.3-0.3-0.6-0.6-0.6H1.5C1.2,36.2,0.9,36.5,0.9,36.8z"/>
	<path class="st6" d="M24.8,8.6l-8.2-1.5c-1.5,3-2.2,6.3-2.2,9.9c0,4.5,1.3,8.7,3.5,12.1l6-1.9c1.6-3,2.5-6.6,2.5-10.3
		C26.3,14,25.9,11.1,24.8,8.6z"/>
	<path class="st7" d="M19.3,27.3c-0.7,0-1.5-0.4-1.8-1.2c-1.2-2.8-1.9-5.8-1.9-9.1c0-3,0.6-5.8,1.6-8.4L16.7,8l-1.8,0.6
		c-1,2.5-1.6,5.4-1.6,8.4c0,4.5,1.3,8.7,3.5,12.1l2.8,1.2l3.2-1.2c0.4-0.6,0.7-1.2,1-1.9h-4.5V27.3z"/>
	<path class="st0" d="M22.5,33h-5.1c-0.6,0-1-0.6-0.9-1l0.4-2.7h5.8l0.4,2.7C23.5,32.4,23.1,33,22.5,33z"/>
	<path class="st2" d="M22.4,16.1c0,1.2-0.3,2.1-1.3,2.5c-0.3,0.1-0.7,0.3-1.2,0.3c-1.6,0-2.8-1.2-2.8-2.8c0-0.4,0.1-0.7,0.3-1.2
		c0.4-1,1.5-1.3,2.5-1.3C21.3,13.5,22.4,14.6,22.4,16.1z"/>
	<path class="st8" d="M1.5,36.2H0.9c-0.4,0-0.6,0.3-0.6,0.6v0.6c0,0.7,0.6,1.3,1.3,1.3h37.1c0.7,0,1.3-0.6,1.3-1.3H2.8
		C2.1,37.5,1.5,36.9,1.5,36.2L1.5,36.2z"/>
	<path class="st3" d="M21,2.5c0,0-3.5,1.2-3.8,6.3h7.4C23.8,6.4,22.7,4.3,21,2.5z"/>
	<path class="st4" d="M21,2.5c-0.1-0.1-0.3-0.4-0.4-0.6c-0.3-0.4-1-0.4-1.3,0c-1.8,1.9-3.2,4.2-4.2,6.7h2.3
		C18.1,6.4,19.4,4.3,21,2.5z"/>
	<path class="st1" d="M19.9,13.2c-1.2,0-2,0.7-2.5,1.6c0.3-0.1,0.7-0.3,1.2-0.3c1.6,0,2.8,1.2,2.8,2.8c0,0.4-0.1,0.7-0.3,1.2
		c1-0.4,1.6-1.3,1.6-2.5C22.7,14.6,21.3,13.2,19.9,13.2L19.9,13.2z"/>
</g>
</svg>
