<?xml version="1.0" encoding="utf-8"?>
<!-- Generator: Adobe Illustrator 23.0.1, SVG Export Plug-In . SVG Version: 6.00 Build 0)  -->
<svg version="1.1" id="Layer_1" xmlns="http://www.w3.org/2000/svg" xmlns:xlink="http://www.w3.org/1999/xlink" x="0px" y="0px"
	 width="40px" height="40px" viewBox="0 0 40 40" style="enable-background:new 0 0 40 40;" xml:space="preserve">
<style type="text/css">
	.st0{fill:#1B3D66;}
	.st1{fill:#F1DE34;}
	.st2{fill:#FAAA28;}
	.st3{fill:#1D5387;}
	.st4{fill:#FFFFFF;}
	.st5{fill:#59C1B0;}
	.st6{fill:#EB5676;}
	.st7{fill:#CA3A60;}
	.st8{fill:#6897CF;}
	.st9{fill:#9FCF79;}
</style>
<g>
	<path class="st0" d="M22.5,39.8c-0.2,0-0.4-0.1-0.5-0.3l-3.4-6.4c-0.1-0.3,0-0.6,0.3-0.8c0.3-0.1,0.6,0,0.9,0.3l3.4,6.4
		c0.1,0.3,0,0.6-0.3,0.8C22.6,39.8,22.5,39.8,22.5,39.8z"/>
	<path class="st0" d="M8.1,39.8c-0.1,0-0.2,0-0.3-0.1c-0.3-0.1-0.4-0.5-0.3-0.8l3.4-6.4c0.1-0.3,0.5-0.4,0.9-0.3
		c0.3,0.1,0.4,0.5,0.3,0.8l-3.4,6.4C8.5,39.7,8.3,39.8,8.1,39.8z"/>
</g>
<path class="st1" d="M3.5,32v-2h23.6v2c0,0.4-0.3,0.7-0.7,0.7H4.2C3.8,32.9,3.5,32.4,3.5,32z"/>
<path class="st2" d="M25.1,30.2v2c0,0.4-0.3,0.7-0.7,0.7h2c0.4,0,0.7-0.3,0.7-0.7v-2L25.1,30.2z"/>
<path class="st1" d="M12.4,3.3V1.4c0-0.5,0.4-0.9,1-0.9h3.7c0.5,0,1,0.4,1,0.9v1.8L12.4,3.3L12.4,3.3z"/>
<path class="st2" d="M17.1,0.6h-2c0.5,0,1,0.4,1,0.9v1.8h2V1.4C18.1,1,17.7,0.6,17.1,0.6z"/>
<path class="st3" d="M29,2.6H3.4c-1,0-1.8,0.7-1.8,1.6V29c0,0.9,0.7,1.6,1.7,1.6h25.6c1,0,1.7-0.7,1.7-1.6V4.3
	C30.7,3.4,29.9,2.6,29,2.6z"/>
<path class="st0" d="M29,2.6h-2c1,0,1.7,0.7,1.7,1.6V29c0,0.9-0.7,1.6-1.7,1.6h2c1,0,1.7-0.7,1.7-1.6V4.3C30.7,3.4,29.9,2.6,29,2.6z
	"/>
<g>
	<path class="st4" d="M7.9,15.6c-0.2,0-0.4-0.1-0.5-0.3c-0.2-0.3-0.1-0.6,0.2-0.8l3.2-1.8c0.3-0.2,0.6-0.1,0.9,0.2
		c0.2,0.3,0.1,0.6-0.2,0.8l-3.2,1.8C8.2,15.6,8.1,15.6,7.9,15.6z"/>
	<path class="st4" d="M16.8,15.6c-0.1,0-0.2,0-0.3-0.1l-3.2-1.8c-0.3-0.2-0.4-0.5-0.2-0.8c0.2-0.3,0.5-0.4,0.9-0.2l3.2,1.8
		c0.3,0.2,0.4,0.5,0.2,0.8C17.2,15.5,17,15.6,16.8,15.6z"/>
	<path class="st4" d="M19,15.2c-0.1,0-0.2,0-0.3-0.1c-0.3-0.2-0.3-0.5-0.1-0.8l4-5.5c0.2-0.3,0.5-0.3,0.9-0.1
		c0.3,0.2,0.3,0.5,0.1,0.8l-4.1,5.4C19.3,15.1,19.2,15.2,19,15.2z"/>
</g>
<g>
	<path class="st5" d="M5.5,21.6v4.8c0,0.1,0.1,0.2,0.2,0.2h2c0.1,0,0.2-0.1,0.2-0.2v-4.8c0-0.1-0.1-0.2-0.2-0.2h-2
		C5.6,21.4,5.5,21.5,5.5,21.6z"/>
	<path class="st5" d="M11.2,18.6v7.8c0,0.1,0.1,0.2,0.2,0.2h2c0.1,0,0.2-0.1,0.2-0.2v-7.8c0-0.1-0.1-0.2-0.2-0.2h-2
		C11.3,18.3,11.2,18.4,11.2,18.6z"/>
	<path class="st5" d="M16.8,21.6v4.8c0,0.1,0.1,0.2,0.2,0.2h2c0.1,0,0.2-0.1,0.2-0.2v-4.8c0-0.1-0.1-0.2-0.2-0.2h-2
		C16.9,21.4,16.8,21.5,16.8,21.6z"/>
	<path class="st5" d="M22.5,16.2v10.3c0,0.1,0.1,0.2,0.2,0.2h2c0.1,0,0.2-0.1,0.2-0.2V16.2c0-0.1-0.1-0.2-0.2-0.2h-2
		C22.6,15.9,22.5,16,22.5,16.2z"/>
</g>
<path class="st6" d="M30.8,24.5l4.9,8.1c0.5,0.8,1.6,1.1,2.6,0.6l0,0c0.9-0.5,1.2-1.5,0.6-2.5L34,22.6L30.8,24.5z"/>
<path class="st7" d="M34,22.7l-3.2,1.8l1.9,3.2c0.5-0.2,1.2-0.4,1.7-0.7c0.5-0.3,1.1-0.6,1.5-1L34,22.7z"/>
<ellipse class="st1" cx="29.4" cy="18.6" rx="7.9" ry="7.6"/>
<ellipse class="st8" cx="29.4" cy="18.6" rx="5.6" ry="5.4"/>
<path class="st1" d="M12.4,10.6c-1.2,0-2,0.9-2,2s1,2,2,2s2-0.9,2-2S13.5,10.6,12.4,10.6z"/>
<path class="st8" d="M6.7,13.8c-1.2,0-2,0.9-2,2c0,1,1,2,2,2s2-0.9,2-2S7.8,13.8,6.7,13.8z"/>
<path class="st6" d="M18.1,13.8c-1.2,0-2,0.9-2,2c0,1,1,2,2,2c1.2,0,2-0.9,2-2S19.3,13.8,18.1,13.8z"/>
<path class="st9" d="M23.8,6c-1.2,0-2,0.9-2,2c0,1.1,1,2,2,2s2-0.9,2-2C25.9,7,24.9,6,23.8,6z"/>
</svg>
