<?xml version="1.0" encoding="utf-8"?>
<!-- Generator: Adobe Illustrator 23.0.1, SVG Export Plug-In . SVG Version: 6.00 Build 0)  -->
<svg version="1.1" id="Layer_1" xmlns="http://www.w3.org/2000/svg" xmlns:xlink="http://www.w3.org/1999/xlink" x="0px" y="0px"
	 width="40px" height="40px" viewBox="0 0 40 40" style="enable-background:new 0 0 40 40;" xml:space="preserve">
<style type="text/css">
	.st0{fill:#0E9247;}
	.st1{fill:#0E8844;}
	.st2{fill:#3BB44A;}
	.st3{fill:#88C663;}
	.st4{fill:#EF5226;}
	.st5{fill:#E71E25;}
</style>
<g>
	<g>
		<path class="st0" d="M37.9,38H2.1c-1,0-1.8-0.8-1.8-1.8V16.5c0-1,0.8-1.8,1.8-1.8h35.9c1,0,1.8,0.8,1.8,1.8v19.7
			C39.7,37.2,38.9,38,37.9,38z"/>
		<path class="st1" d="M33.4,30.8c-2.1,0-3.9,1-5,2.6c-0.9-0.4-1.9-0.8-3-0.8c-3.1,0-5.7,2.3-6.2,5.4h18.7c0.9,0,1.6-0.6,1.8-1.5
			C39.4,33.3,36.7,30.8,33.4,30.8z"/>
		<path class="st2" d="M34.3,36.2H5.7c0-2-1.6-3.6-3.6-3.6V20.1c2,0,3.6-1.6,3.6-3.6h28.7c0,2,1.6,3.6,3.6,3.6v12.6
			C36,32.6,34.3,34.2,34.3,36.2z"/>
		<g>
			<ellipse class="st0" cx="20" cy="26.4" rx="7.2" ry="8.1"/>
			<circle class="st0" cx="9.2" cy="26.4" r="1.8"/>
			<circle class="st0" cx="30.8" cy="26.4" r="1.8"/>
		</g>
		<path class="st3" d="M20.9,25.5h-1.8c-0.5,0-0.9-0.4-0.9-0.9c0-0.5,0.4-0.9,0.9-0.9h2.7c0.5,0,0.9-0.4,0.9-0.9
			c0-0.5-0.4-0.9-0.9-0.9h-0.9c0-0.5-0.4-0.9-0.9-0.9c-0.5,0-0.9,0.4-0.9,0.9c-1.5,0-2.7,1.2-2.7,2.7c0,1.5,1.2,2.7,2.7,2.7h1.8
			c0.5,0,0.9,0.4,0.9,0.9c0,0.5-0.4,0.9-0.9,0.9h-2.7c-0.5,0-0.9,0.4-0.9,0.9c0,0.5,0.4,0.9,0.9,0.9h0.9c0,0.5,0.4,0.9,0.9,0.9
			c0.5,0,0.9-0.4,0.9-0.9c1.5,0,2.7-1.2,2.7-2.7C23.6,26.6,22.4,25.5,20.9,25.5z"/>
	</g>
	<path class="st4" d="M37.5,9c0,0.7-0.6,1.4-1.2,1.4c-0.8,0-1.3-0.6-1.3-1.2v-1l-7.6,7.8c-0.4,0.5-1.3,0.5-1.8,0l-4.2-4.3l-10.6,11
		c-0.4,0.5-1.3,0.5-1.8,0l-6.5-6.7c-0.8-0.8-0.2-2.3,0.9-2.3c0.3,0,0.7,0.1,0.9,0.3l5.6,5.8L20.6,9c0.4-0.5,1.3-0.5,1.8,0l4.2,4.3
		l6.7-6.9H32c-0.8,0-1.3-0.6-1.2-1.4c0-0.7,0.7-1.2,1.3-1.2h4.3c0.7,0,1.3,0.6,1.3,1.4L37.5,9L37.5,9z"/>
	<path class="st5" d="M36.3,3.7H32c-0.7,0-1.3,0.6-1.3,1.2c0,0.8,0.6,1.4,1.2,1.4h1.2l-6.6,6.9L22.3,9c-0.4-0.5-1.3-0.5-1.8,0
		l-0.7,0.7v3.7l1.5-1.6l4.2,4.3c0.4,0.5,1.3,0.5,1.8,0L35,8.3V9c0,0.8,0.6,1.4,1.3,1.2c0.8,0,1.2-0.6,1.2-1.2l0,0V5
		C37.5,4.2,37,3.7,36.3,3.7z"/>
</g>
</svg>
