<?xml version="1.0" encoding="utf-8"?>
<!-- Generator: Adobe Illustrator 23.0.1, SVG Export Plug-In . SVG Version: 6.00 Build 0)  -->
<svg version="1.1" id="Layer_1" xmlns="http://www.w3.org/2000/svg" xmlns:xlink="http://www.w3.org/1999/xlink" x="0px" y="0px"
	 width="40px" height="40px" viewBox="0 0 40 40" style="enable-background:new 0 0 40 40;" xml:space="preserve">
<style type="text/css">
	.st0{fill:#74675A;}
	.st1{fill:#53DCFF;}
	.st2{fill:#B3F4FF;}
	.st3{fill:#FF4F19;}
	.st4{fill:#E9001E;}
	.st5{fill:#B2B1B2;}
	.st6{fill:#FFD200;}
	.st7{fill:#FF9600;}
	.st8{fill:#939393;}
	.st9{fill:#FFFFFF;}
	.st10{fill:#353A59;}
	.st11{fill:#4C5072;}
	.st12{fill:#B4D2D7;}
	.st13{fill:#95DAE8;}
	.st14{fill:#F9D35A;}
	.st15{fill:#FF435E;}
</style>
<path class="st10" d="M27.1,35.8l-7.2,1.1l-7.2-1.1l2.2-4.2l5.4-2.4l4.6,2.4L27.1,35.8z"/>
<path class="st11" d="M36.6,31.6H3.2c-1.8,0-3.2-1.4-3.2-3.2V6.6c0-1.8,1.4-3.2,3.2-3.2h33.4c1.8,0,3.2,1.4,3.2,3.2v21.8
	C39.7,30.2,38.3,31.6,36.6,31.6z"/>
<path class="st11" d="M28.3,38.1H11.5c-0.6,0-1.1-0.5-1.1-1.1c0-0.6,0.5-1.1,1.1-1.1h16.8c0.6,0,1.1,0.5,1.1,1.1
	C29.4,37.6,28.9,38.1,28.3,38.1z"/>
<path class="st12" d="M37.7,8.3v15.6c0,1.4-1.2,2.6-2.6,2.6H4.6c-1.4,0-2.6-1.2-2.6-2.6V8.3c0-1.4,1.2-2.6,2.6-2.6h30.5
	C36.5,5.7,37.7,6.9,37.7,8.3z"/>
<path class="st13" d="M37.7,8.3v15.6c0,1.4-1.2,2.6-2.6,2.6H19.9V5.7h15.2C36.5,5.7,37.7,6.9,37.7,8.3z"/>
<path class="st9" d="M19.9,5.7v5.7H2V8.3c0-1.4,1.2-2.6,2.6-2.6H19.9z"/>
<path class="st10" d="M35.1,27.2H4.6c-1.8,0-3.2-1.4-3.2-3.2V8.3c0-1.8,1.4-3.2,3.2-3.2h30.5c1.8,0,3.2,1.4,3.2,3.2v15.6
	C38.3,25.7,36.9,27.2,35.1,27.2z M4.6,6.3c-1.1,0-2,0.9-2,2v15.6c0,1.1,0.9,2,2,2h30.5c1.1,0,2-0.9,2-2V8.3c0-1.1-0.9-2-2-2H4.6z"/>
<path class="st14" d="M6.1,8.6c0,0.6-0.5,1-1,1s-1-0.5-1-1s0.5-1,1-1S6.1,8,6.1,8.6z"/>
<path class="st13" d="M10,8.6c0,0.6-0.5,1-1,1s-1-0.5-1-1s0.5-1,1-1S10,8,10,8.6z"/>
<path class="st15" d="M13.9,8.6c0,0.6-0.5,1-1,1c-0.6,0-1-0.5-1-1s0.5-1,1-1C13.5,7.6,13.9,8,13.9,8.6z"/>
<g>
	<path class="st10" d="M17.5,15.6H4.5c-0.3,0-0.6-0.3-0.6-0.6s0.3-0.6,0.6-0.6h13.1c0.3,0,0.6,0.3,0.6,0.6S17.9,15.6,17.5,15.6z"/>
	<path class="st10" d="M17.5,18.3H4.5c-0.3,0-0.6-0.3-0.6-0.6s0.3-0.6,0.6-0.6h13.1c0.3,0,0.6,0.3,0.6,0.6S17.9,18.3,17.5,18.3z"/>
	<path class="st10" d="M14.6,20.9H4.5c-0.3,0-0.6-0.3-0.6-0.6c0-0.3,0.3-0.6,0.6-0.6h10.1c0.3,0,0.6,0.3,0.6,0.6
		C15.2,20.7,14.9,20.9,14.6,20.9z"/>
	<path class="st10" d="M25.1,19.8c-0.2,0-0.3-0.1-0.4-0.2l-2.9-2.9c-0.1-0.1-0.2-0.3-0.2-0.4c0-0.2,0.1-0.3,0.2-0.4l2.9-2.9
		c0.2-0.2,0.6-0.2,0.9,0c0.2,0.2,0.2,0.6,0,0.9L23,16.3l2.5,2.5c0.2,0.2,0.2,0.6,0,0.9C25.4,19.7,25.2,19.8,25.1,19.8z"/>
	<path class="st10" d="M31.3,19.8c-0.2,0-0.3-0.1-0.4-0.2c-0.2-0.2-0.2-0.6,0-0.9l2.5-2.5l-2.5-2.5c-0.2-0.2-0.2-0.6,0-0.9
		c0.2-0.2,0.6-0.2,0.9,0l2.9,2.9c0.1,0.1,0.2,0.3,0.2,0.4c0,0.2-0.1,0.3-0.2,0.4l-2.9,2.9C31.6,19.7,31.5,19.8,31.3,19.8z"/>
	<path class="st10" d="M27,21.4c0,0-0.1,0-0.1,0c-0.3-0.1-0.5-0.4-0.4-0.7l2.3-9.2c0.1-0.3,0.4-0.5,0.7-0.4c0.3,0.1,0.5,0.4,0.4,0.7
		L27.6,21C27.6,21.3,27.3,21.4,27,21.4z"/>
	<path class="st10" d="M4.7,31.6H3.2c-1.8,0-3.2-1.4-3.2-3.2V6.6c0-1.8,1.4-3.2,3.2-3.2h1.4c-1.7,0-3.2,1.4-3.2,3.2v21.8
		C1.5,30.2,2.9,31.6,4.7,31.6z"/>
	<path class="st10" d="M14.6,38.1h-3.2c-0.6,0-1.1-0.5-1.1-1.1c0-0.3,0.1-0.6,0.3-0.8c0.2-0.2,0.5-0.3,0.8-0.3h3.2
		c-0.3,0-0.6,0.1-0.8,0.3c-0.2,0.2-0.3,0.5-0.3,0.8C13.5,37.6,14,38.1,14.6,38.1z"/>
</g>
</svg>
