<?xml version="1.0" encoding="utf-8"?>
<!-- Generator: Adobe Illustrator 23.0.1, SVG Export Plug-In . SVG Version: 6.00 Build 0)  -->
<svg version="1.1" id="Layer_1" xmlns="http://www.w3.org/2000/svg" xmlns:xlink="http://www.w3.org/1999/xlink" x="0px" y="0px"
	 width="40px" height="40px" viewBox="0 0 40 40" style="enable-background:new 0 0 40 40;" xml:space="preserve">
<style type="text/css">
	.st0{fill:#74675A;}
	.st1{fill:#53DCFF;}
	.st2{fill:#B3F4FF;}
	.st3{fill:#FF4F19;}
	.st4{fill:#E9001E;}
	.st5{fill:#B2B1B2;}
	.st6{fill:#FFD200;}
	.st7{fill:#FF9600;}
	.st8{fill:#939393;}
	.st9{fill:#FFFFFF;}
	.st10{fill:#00769D;}
	.st11{fill:#026187;}
</style>
<path class="st10" d="M12.1,12.4H9.9l5.9,16.8l3.3-9.5l-2.6-7.3h-2.3v-1.6h10.2v1.6H22L28,29.2l2.1-6.1c2.8-7.8-2.3-10.2-2.3-12
	s1.4-3.2,3.2-3.2c0.1,0,0.2,0,0.3,0c-3-2.8-6.9-4.5-11.3-4.5c-5.7,0-10.8,2.9-13.7,7.3h5.8L12.1,12.4L12.1,12.4L12.1,12.4z"/>
<path class="st10" d="M3.5,19.9c0,6.3,3.5,11.8,8.8,14.6l-7.4-21C3.9,15.5,3.5,17.6,3.5,19.9z"/>
<path class="st11" d="M34.3,11.8c0.2,1.4,0.2,2.9-0.2,4.5h0.1L33.9,17l0,0c-0.1,0.5-0.3,1-0.5,1.6l-5.7,15.9
	c5.2-2.8,8.7-8.2,8.7-14.5C36.4,17,35.6,14.2,34.3,11.8z"/>
<path class="st10" d="M14.8,35.6c1.6,0.5,3.3,0.8,5.1,0.8c1.7,0,3.3-0.3,4.9-0.7L20,22.1L14.8,35.6z"/>
<path class="st10" d="M33.9,6c-3.7-3.7-8.7-5.8-13.9-5.8S9.7,2.3,6,6s-5.8,8.7-5.8,13.9c0,5.3,2,10.2,5.8,13.9s8.7,5.8,13.9,5.8
	s10.2-2,13.9-5.8c3.7-3.7,5.8-8.7,5.8-13.9C39.6,14.7,37.6,9.7,33.9,6z M19.9,38.2C9.8,38.2,1.6,30,1.6,19.9S9.8,1.6,19.9,1.6
	s18.3,8.2,18.3,18.3S30,38.2,19.9,38.2z"/>
<path class="st11" d="M19.8,3.5v7.3h4.6v1.6H22L28,29.2l2.1-6.1c2.8-7.8-2.3-10.2-2.3-12c0-1.7,1.4-3.2,3.2-3.2c0.1,0,0.2,0,0.3,0
	c-3-2.8-6.9-4.5-11.3-4.5C19.9,3.5,19.9,3.5,19.8,3.5z"/>
<path class="st11" d="M19.8,22.5v13.9c0,0,0.1,0,0.1,0c1.7,0,3.3-0.3,4.9-0.7L20,22.1L19.8,22.5z"/>
<path class="st11" d="M19.9,0.2c0,0-0.1,0-0.1,0v1.4c0,0,0.1,0,0.1,0c10.1,0,18.3,8.2,18.3,18.3S30,38.2,19.9,38.2c0,0-0.1,0-0.1,0
	v1.4c0,0,0.1,0,0.1,0c5.3,0,10.2-2,13.9-5.8c3.7-3.7,5.8-8.7,5.8-13.9c0-5.3-2-10.2-5.8-13.9S25.2,0.2,19.9,0.2z"/>
</svg>
